<?xml version="1.0" encoding="utf-8" standalone="no"?>
<!DOCTYPE svg PUBLIC "-//W3C//DTD SVG 1.1//EN"
  "http://www.w3.org/Graphics/SVG/1.1/DTD/svg11.dtd">
<svg xmlns:xlink="http://www.w3.org/1999/xlink" width="1008pt" height="273.6pt" viewBox="0 0 1008 273.6" xmlns="http://www.w3.org/2000/svg" version="1.1">
 <metadata>
  <rdf:RDF xmlns:dc="http://purl.org/dc/elements/1.1/" xmlns:cc="http://creativecommons.org/ns#" xmlns:rdf="http://www.w3.org/1999/02/22-rdf-syntax-ns#">
   <cc:Work>
    <dc:type rdf:resource="http://purl.org/dc/dcmitype/StillImage"/>
    <dc:date>2026-01-17T13:57:35.804221</dc:date>
    <dc:format>image/svg+xml</dc:format>
    <dc:creator>
     <cc:Agent>
      <dc:title>Matplotlib v3.10.7, https://matplotlib.org/</dc:title>
     </cc:Agent>
    </dc:creator>
   </cc:Work>
  </rdf:RDF>
 </metadata>
 <defs>
  <style type="text/css">*{stroke-linejoin: round; stroke-linecap: butt}</style>
 </defs>
 <g id="figure_1">
  <g id="patch_1">
   <path d="M 0 273.6 
L 1008 273.6 
L 1008 0 
L 0 0 
z
" style="fill: #121212"/>
  </g>
  <g id="axes_1">
   <g id="patch_2">
    <path d="M 49.485185 205.031765 
L 997.2 205.031765 
L 997.2 32.16 
L 49.485185 32.16 
z
" style="fill: #121212"/>
   </g>
   <g id="matplotlib.axis_1">
    <g id="xtick_1">
     <g id="line2d_1">
      <defs>
       <path id="ma2fe456bb8" d="M 0 0 
L 0 3.5 
" style="stroke: #e0e0e0; stroke-width: 0.8"/>
      </defs>
      <g>
       <use xlink:href="#ma2fe456bb8" x="92.563131" y="205.031765" style="fill: #e0e0e0; stroke: #e0e0e0; stroke-width: 0.8"/>
      </g>
     </g>
     <g id="text_1">
      <!-- 2025-01 -->
      <g style="fill: #e0e0e0" transform="translate(79.741849 246.949581) rotate(-45) scale(0.1 -0.1)">
       <defs>
        <path id="DejaVuSans-32" d="M 1228 531 
L 3431 531 
L 3431 0 
L 469 0 
L 469 531 
Q 828 903 1448 1529 
Q 2069 2156 2228 2338 
Q 2531 2678 2651 2914 
Q 2772 3150 2772 3378 
Q 2772 3750 2511 3984 
Q 2250 4219 1831 4219 
Q 1534 4219 1204 4116 
Q 875 4013 500 3803 
L 500 4441 
Q 881 4594 1212 4672 
Q 1544 4750 1819 4750 
Q 2544 4750 2975 4387 
Q 3406 4025 3406 3419 
Q 3406 3131 3298 2873 
Q 3191 2616 2906 2266 
Q 2828 2175 2409 1742 
Q 1991 1309 1228 531 
z
" transform="scale(0.015625)"/>
        <path id="DejaVuSans-30" d="M 2034 4250 
Q 1547 4250 1301 3770 
Q 1056 3291 1056 2328 
Q 1056 1369 1301 889 
Q 1547 409 2034 409 
Q 2525 409 2770 889 
Q 3016 1369 3016 2328 
Q 3016 3291 2770 3770 
Q 2525 4250 2034 4250 
z
M 2034 4750 
Q 2819 4750 3233 4129 
Q 3647 3509 3647 2328 
Q 3647 1150 3233 529 
Q 2819 -91 2034 -91 
Q 1250 -91 836 529 
Q 422 1150 422 2328 
Q 422 3509 836 4129 
Q 1250 4750 2034 4750 
z
" transform="scale(0.015625)"/>
        <path id="DejaVuSans-35" d="M 691 4666 
L 3169 4666 
L 3169 4134 
L 1269 4134 
L 1269 2991 
Q 1406 3038 1543 3061 
Q 1681 3084 1819 3084 
Q 2600 3084 3056 2656 
Q 3513 2228 3513 1497 
Q 3513 744 3044 326 
Q 2575 -91 1722 -91 
Q 1428 -91 1123 -41 
Q 819 9 494 109 
L 494 744 
Q 775 591 1075 516 
Q 1375 441 1709 441 
Q 2250 441 2565 725 
Q 2881 1009 2881 1497 
Q 2881 1984 2565 2268 
Q 2250 2553 1709 2553 
Q 1456 2553 1204 2497 
Q 953 2441 691 2322 
L 691 4666 
z
" transform="scale(0.015625)"/>
        <path id="DejaVuSans-2d" d="M 313 2009 
L 1997 2009 
L 1997 1497 
L 313 1497 
L 313 2009 
z
" transform="scale(0.015625)"/>
        <path id="DejaVuSans-31" d="M 794 531 
L 1825 531 
L 1825 4091 
L 703 3866 
L 703 4441 
L 1819 4666 
L 2450 4666 
L 2450 531 
L 3481 531 
L 3481 0 
L 794 0 
L 794 531 
z
" transform="scale(0.015625)"/>
       </defs>
       <use xlink:href="#DejaVuSans-32"/>
       <use xlink:href="#DejaVuSans-30" transform="translate(63.623047 0)"/>
       <use xlink:href="#DejaVuSans-32" transform="translate(127.246094 0)"/>
       <use xlink:href="#DejaVuSans-35" transform="translate(190.869141 0)"/>
       <use xlink:href="#DejaVuSans-2d" transform="translate(254.492188 0)"/>
       <use xlink:href="#DejaVuSans-30" transform="translate(290.576172 0)"/>
       <use xlink:href="#DejaVuSans-31" transform="translate(354.199219 0)"/>
      </g>
     </g>
    </g>
    <g id="xtick_2">
     <g id="line2d_2">
      <g>
       <use xlink:href="#ma2fe456bb8" x="232.211418" y="205.031765" style="fill: #e0e0e0; stroke: #e0e0e0; stroke-width: 0.8"/>
      </g>
     </g>
     <g id="text_2">
      <!-- 2025-03 -->
      <g style="fill: #e0e0e0" transform="translate(219.390136 246.949581) rotate(-45) scale(0.1 -0.1)">
       <defs>
        <path id="DejaVuSans-33" d="M 2597 2516 
Q 3050 2419 3304 2112 
Q 3559 1806 3559 1356 
Q 3559 666 3084 287 
Q 2609 -91 1734 -91 
Q 1441 -91 1130 -33 
Q 819 25 488 141 
L 488 750 
Q 750 597 1062 519 
Q 1375 441 1716 441 
Q 2309 441 2620 675 
Q 2931 909 2931 1356 
Q 2931 1769 2642 2001 
Q 2353 2234 1838 2234 
L 1294 2234 
L 1294 2753 
L 1863 2753 
Q 2328 2753 2575 2939 
Q 2822 3125 2822 3475 
Q 2822 3834 2567 4026 
Q 2313 4219 1838 4219 
Q 1578 4219 1281 4162 
Q 984 4106 628 3988 
L 628 4550 
Q 988 4650 1302 4700 
Q 1616 4750 1894 4750 
Q 2613 4750 3031 4423 
Q 3450 4097 3450 3541 
Q 3450 3153 3228 2886 
Q 3006 2619 2597 2516 
z
" transform="scale(0.015625)"/>
       </defs>
       <use xlink:href="#DejaVuSans-32"/>
       <use xlink:href="#DejaVuSans-30" transform="translate(63.623047 0)"/>
       <use xlink:href="#DejaVuSans-32" transform="translate(127.246094 0)"/>
       <use xlink:href="#DejaVuSans-35" transform="translate(190.869141 0)"/>
       <use xlink:href="#DejaVuSans-2d" transform="translate(254.492188 0)"/>
       <use xlink:href="#DejaVuSans-30" transform="translate(290.576172 0)"/>
       <use xlink:href="#DejaVuSans-33" transform="translate(354.199219 0)"/>
      </g>
     </g>
    </g>
    <g id="xtick_3">
     <g id="line2d_3">
      <g>
       <use xlink:href="#ma2fe456bb8" x="376.593545" y="205.031765" style="fill: #e0e0e0; stroke: #e0e0e0; stroke-width: 0.8"/>
      </g>
     </g>
     <g id="text_3">
      <!-- 2025-05 -->
      <g style="fill: #e0e0e0" transform="translate(363.772263 246.949581) rotate(-45) scale(0.1 -0.1)">
       <use xlink:href="#DejaVuSans-32"/>
       <use xlink:href="#DejaVuSans-30" transform="translate(63.623047 0)"/>
       <use xlink:href="#DejaVuSans-32" transform="translate(127.246094 0)"/>
       <use xlink:href="#DejaVuSans-35" transform="translate(190.869141 0)"/>
       <use xlink:href="#DejaVuSans-2d" transform="translate(254.492188 0)"/>
       <use xlink:href="#DejaVuSans-30" transform="translate(290.576172 0)"/>
       <use xlink:href="#DejaVuSans-35" transform="translate(354.199219 0)"/>
      </g>
     </g>
    </g>
    <g id="xtick_4">
     <g id="line2d_4">
      <g>
       <use xlink:href="#ma2fe456bb8" x="520.975672" y="205.031765" style="fill: #e0e0e0; stroke: #e0e0e0; stroke-width: 0.8"/>
      </g>
     </g>
     <g id="text_4">
      <!-- 2025-07 -->
      <g style="fill: #e0e0e0" transform="translate(508.15439 246.949581) rotate(-45) scale(0.1 -0.1)">
       <defs>
        <path id="DejaVuSans-37" d="M 525 4666 
L 3525 4666 
L 3525 4397 
L 1831 0 
L 1172 0 
L 2766 4134 
L 525 4134 
L 525 4666 
z
" transform="scale(0.015625)"/>
       </defs>
       <use xlink:href="#DejaVuSans-32"/>
       <use xlink:href="#DejaVuSans-30" transform="translate(63.623047 0)"/>
       <use xlink:href="#DejaVuSans-32" transform="translate(127.246094 0)"/>
       <use xlink:href="#DejaVuSans-35" transform="translate(190.869141 0)"/>
       <use xlink:href="#DejaVuSans-2d" transform="translate(254.492188 0)"/>
       <use xlink:href="#DejaVuSans-30" transform="translate(290.576172 0)"/>
       <use xlink:href="#DejaVuSans-37" transform="translate(354.199219 0)"/>
      </g>
     </g>
    </g>
    <g id="xtick_5">
     <g id="line2d_5">
      <g>
       <use xlink:href="#ma2fe456bb8" x="667.72472" y="205.031765" style="fill: #e0e0e0; stroke: #e0e0e0; stroke-width: 0.8"/>
      </g>
     </g>
     <g id="text_5">
      <!-- 2025-09 -->
      <g style="fill: #e0e0e0" transform="translate(654.903437 246.949581) rotate(-45) scale(0.1 -0.1)">
       <defs>
        <path id="DejaVuSans-39" d="M 703 97 
L 703 672 
Q 941 559 1184 500 
Q 1428 441 1663 441 
Q 2288 441 2617 861 
Q 2947 1281 2994 2138 
Q 2813 1869 2534 1725 
Q 2256 1581 1919 1581 
Q 1219 1581 811 2004 
Q 403 2428 403 3163 
Q 403 3881 828 4315 
Q 1253 4750 1959 4750 
Q 2769 4750 3195 4129 
Q 3622 3509 3622 2328 
Q 3622 1225 3098 567 
Q 2575 -91 1691 -91 
Q 1453 -91 1209 -44 
Q 966 3 703 97 
z
M 1959 2075 
Q 2384 2075 2632 2365 
Q 2881 2656 2881 3163 
Q 2881 3666 2632 3958 
Q 2384 4250 1959 4250 
Q 1534 4250 1286 3958 
Q 1038 3666 1038 3163 
Q 1038 2656 1286 2365 
Q 1534 2075 1959 2075 
z
" transform="scale(0.015625)"/>
       </defs>
       <use xlink:href="#DejaVuSans-32"/>
       <use xlink:href="#DejaVuSans-30" transform="translate(63.623047 0)"/>
       <use xlink:href="#DejaVuSans-32" transform="translate(127.246094 0)"/>
       <use xlink:href="#DejaVuSans-35" transform="translate(190.869141 0)"/>
       <use xlink:href="#DejaVuSans-2d" transform="translate(254.492188 0)"/>
       <use xlink:href="#DejaVuSans-30" transform="translate(290.576172 0)"/>
       <use xlink:href="#DejaVuSans-39" transform="translate(354.199219 0)"/>
      </g>
     </g>
    </g>
    <g id="xtick_6">
     <g id="line2d_6">
      <g>
       <use xlink:href="#ma2fe456bb8" x="812.106847" y="205.031765" style="fill: #e0e0e0; stroke: #e0e0e0; stroke-width: 0.8"/>
      </g>
     </g>
     <g id="text_6">
      <!-- 2025-11 -->
      <g style="fill: #e0e0e0" transform="translate(799.285565 246.949581) rotate(-45) scale(0.1 -0.1)">
       <use xlink:href="#DejaVuSans-32"/>
       <use xlink:href="#DejaVuSans-30" transform="translate(63.623047 0)"/>
       <use xlink:href="#DejaVuSans-32" transform="translate(127.246094 0)"/>
       <use xlink:href="#DejaVuSans-35" transform="translate(190.869141 0)"/>
       <use xlink:href="#DejaVuSans-2d" transform="translate(254.492188 0)"/>
       <use xlink:href="#DejaVuSans-31" transform="translate(290.576172 0)"/>
       <use xlink:href="#DejaVuSans-31" transform="translate(354.199219 0)"/>
      </g>
     </g>
    </g>
    <g id="xtick_7">
     <g id="line2d_7">
      <g>
       <use xlink:href="#ma2fe456bb8" x="956.488974" y="205.031765" style="fill: #e0e0e0; stroke: #e0e0e0; stroke-width: 0.8"/>
      </g>
     </g>
     <g id="text_7">
      <!-- 2026-01 -->
      <g style="fill: #e0e0e0" transform="translate(943.667692 246.949581) rotate(-45) scale(0.1 -0.1)">
       <defs>
        <path id="DejaVuSans-36" d="M 2113 2584 
Q 1688 2584 1439 2293 
Q 1191 2003 1191 1497 
Q 1191 994 1439 701 
Q 1688 409 2113 409 
Q 2538 409 2786 701 
Q 3034 994 3034 1497 
Q 3034 2003 2786 2293 
Q 2538 2584 2113 2584 
z
M 3366 4563 
L 3366 3988 
Q 3128 4100 2886 4159 
Q 2644 4219 2406 4219 
Q 1781 4219 1451 3797 
Q 1122 3375 1075 2522 
Q 1259 2794 1537 2939 
Q 1816 3084 2150 3084 
Q 2853 3084 3261 2657 
Q 3669 2231 3669 1497 
Q 3669 778 3244 343 
Q 2819 -91 2113 -91 
Q 1303 -91 875 529 
Q 447 1150 447 2328 
Q 447 3434 972 4092 
Q 1497 4750 2381 4750 
Q 2619 4750 2861 4703 
Q 3103 4656 3366 4563 
z
" transform="scale(0.015625)"/>
       </defs>
       <use xlink:href="#DejaVuSans-32"/>
       <use xlink:href="#DejaVuSans-30" transform="translate(63.623047 0)"/>
       <use xlink:href="#DejaVuSans-32" transform="translate(127.246094 0)"/>
       <use xlink:href="#DejaVuSans-36" transform="translate(190.869141 0)"/>
       <use xlink:href="#DejaVuSans-2d" transform="translate(254.492188 0)"/>
       <use xlink:href="#DejaVuSans-30" transform="translate(290.576172 0)"/>
       <use xlink:href="#DejaVuSans-31" transform="translate(354.199219 0)"/>
      </g>
     </g>
    </g>
    <g id="text_8">
     <!-- Date -->
     <g style="fill: #e0e0e0" transform="translate(511.391811 260.01858) scale(0.1 -0.1)">
      <defs>
       <path id="DejaVuSans-44" d="M 1259 4147 
L 1259 519 
L 2022 519 
Q 2988 519 3436 956 
Q 3884 1394 3884 2338 
Q 3884 3275 3436 3711 
Q 2988 4147 2022 4147 
L 1259 4147 
z
M 628 4666 
L 1925 4666 
Q 3281 4666 3915 4102 
Q 4550 3538 4550 2338 
Q 4550 1131 3912 565 
Q 3275 0 1925 0 
L 628 0 
L 628 4666 
z
" transform="scale(0.015625)"/>
       <path id="DejaVuSans-61" d="M 2194 1759 
Q 1497 1759 1228 1600 
Q 959 1441 959 1056 
Q 959 750 1161 570 
Q 1363 391 1709 391 
Q 2188 391 2477 730 
Q 2766 1069 2766 1631 
L 2766 1759 
L 2194 1759 
z
M 3341 1997 
L 3341 0 
L 2766 0 
L 2766 531 
Q 2569 213 2275 61 
Q 1981 -91 1556 -91 
Q 1019 -91 701 211 
Q 384 513 384 1019 
Q 384 1609 779 1909 
Q 1175 2209 1959 2209 
L 2766 2209 
L 2766 2266 
Q 2766 2663 2505 2880 
Q 2244 3097 1772 3097 
Q 1472 3097 1187 3025 
Q 903 2953 641 2809 
L 641 3341 
Q 956 3463 1253 3523 
Q 1550 3584 1831 3584 
Q 2591 3584 2966 3190 
Q 3341 2797 3341 1997 
z
" transform="scale(0.015625)"/>
       <path id="DejaVuSans-74" d="M 1172 4494 
L 1172 3500 
L 2356 3500 
L 2356 3053 
L 1172 3053 
L 1172 1153 
Q 1172 725 1289 603 
Q 1406 481 1766 481 
L 2356 481 
L 2356 0 
L 1766 0 
Q 1100 0 847 248 
Q 594 497 594 1153 
L 594 3053 
L 172 3053 
L 172 3500 
L 594 3500 
L 594 4494 
L 1172 4494 
z
" transform="scale(0.015625)"/>
       <path id="DejaVuSans-65" d="M 3597 1894 
L 3597 1613 
L 953 1613 
Q 991 1019 1311 708 
Q 1631 397 2203 397 
Q 2534 397 2845 478 
Q 3156 559 3463 722 
L 3463 178 
Q 3153 47 2828 -22 
Q 2503 -91 2169 -91 
Q 1331 -91 842 396 
Q 353 884 353 1716 
Q 353 2575 817 3079 
Q 1281 3584 2069 3584 
Q 2775 3584 3186 3129 
Q 3597 2675 3597 1894 
z
M 3022 2063 
Q 3016 2534 2758 2815 
Q 2500 3097 2075 3097 
Q 1594 3097 1305 2825 
Q 1016 2553 972 2059 
L 3022 2063 
z
" transform="scale(0.015625)"/>
      </defs>
      <use xlink:href="#DejaVuSans-44"/>
      <use xlink:href="#DejaVuSans-61" transform="translate(77.001953 0)"/>
      <use xlink:href="#DejaVuSans-74" transform="translate(138.28125 0)"/>
      <use xlink:href="#DejaVuSans-65" transform="translate(177.490234 0)"/>
     </g>
    </g>
   </g>
   <g id="matplotlib.axis_2">
    <g id="ytick_1">
     <g id="line2d_8">
      <path d="M 49.485185 185.324367 
L 997.2 185.324367 
" clip-path="url(#pe318a84891)" style="fill: none; stroke: #2a2a2a; stroke-opacity: 0.6; stroke-width: 0.6; stroke-linecap: square"/>
     </g>
     <g id="line2d_9">
      <defs>
       <path id="mc62097f882" d="M 0 0 
L -3.5 0 
" style="stroke: #e0e0e0; stroke-width: 0.8"/>
      </defs>
      <g>
       <use xlink:href="#mc62097f882" x="49.485185" y="185.324367" style="fill: #e0e0e0; stroke: #e0e0e0; stroke-width: 0.8"/>
      </g>
     </g>
     <g id="text_9">
      <!-- $\mathdefault{10^{3}}$ -->
      <g style="fill: #e0e0e0" transform="translate(24.885185 189.123586) scale(0.1 -0.1)">
       <use xlink:href="#DejaVuSans-31" transform="translate(0 0.765625)"/>
       <use xlink:href="#DejaVuSans-30" transform="translate(63.623047 0.765625)"/>
       <use xlink:href="#DejaVuSans-33" transform="translate(128.203125 39.046875) scale(0.7)"/>
      </g>
     </g>
    </g>
    <g id="ytick_2">
     <g id="line2d_10">
      <path d="M 49.485185 146.074245 
L 997.2 146.074245 
" clip-path="url(#pe318a84891)" style="fill: none; stroke: #2a2a2a; stroke-opacity: 0.6; stroke-width: 0.6; stroke-linecap: square"/>
     </g>
     <g id="line2d_11">
      <g>
       <use xlink:href="#mc62097f882" x="49.485185" y="146.074245" style="fill: #e0e0e0; stroke: #e0e0e0; stroke-width: 0.8"/>
      </g>
     </g>
     <g id="text_10">
      <!-- $\mathdefault{10^{4}}$ -->
      <g style="fill: #e0e0e0" transform="translate(24.885185 149.873464) scale(0.1 -0.1)">
       <defs>
        <path id="DejaVuSans-34" d="M 2419 4116 
L 825 1625 
L 2419 1625 
L 2419 4116 
z
M 2253 4666 
L 3047 4666 
L 3047 1625 
L 3713 1625 
L 3713 1100 
L 3047 1100 
L 3047 0 
L 2419 0 
L 2419 1100 
L 313 1100 
L 313 1709 
L 2253 4666 
z
" transform="scale(0.015625)"/>
       </defs>
       <use xlink:href="#DejaVuSans-31" transform="translate(0 0.684375)"/>
       <use xlink:href="#DejaVuSans-30" transform="translate(63.623047 0.684375)"/>
       <use xlink:href="#DejaVuSans-34" transform="translate(128.203125 38.965625) scale(0.7)"/>
      </g>
     </g>
    </g>
    <g id="ytick_3">
     <g id="line2d_12">
      <path d="M 49.485185 106.824124 
L 997.2 106.824124 
" clip-path="url(#pe318a84891)" style="fill: none; stroke: #2a2a2a; stroke-opacity: 0.6; stroke-width: 0.6; stroke-linecap: square"/>
     </g>
     <g id="line2d_13">
      <g>
       <use xlink:href="#mc62097f882" x="49.485185" y="106.824124" style="fill: #e0e0e0; stroke: #e0e0e0; stroke-width: 0.8"/>
      </g>
     </g>
     <g id="text_11">
      <!-- $\mathdefault{10^{5}}$ -->
      <g style="fill: #e0e0e0" transform="translate(24.885185 110.623343) scale(0.1 -0.1)">
       <use xlink:href="#DejaVuSans-31" transform="translate(0 0.684375)"/>
       <use xlink:href="#DejaVuSans-30" transform="translate(63.623047 0.684375)"/>
       <use xlink:href="#DejaVuSans-35" transform="translate(128.203125 38.965625) scale(0.7)"/>
      </g>
     </g>
    </g>
    <g id="ytick_4">
     <g id="line2d_14">
      <path d="M 49.485185 67.574002 
L 997.2 67.574002 
" clip-path="url(#pe318a84891)" style="fill: none; stroke: #2a2a2a; stroke-opacity: 0.6; stroke-width: 0.6; stroke-linecap: square"/>
     </g>
     <g id="line2d_15">
      <g>
       <use xlink:href="#mc62097f882" x="49.485185" y="67.574002" style="fill: #e0e0e0; stroke: #e0e0e0; stroke-width: 0.8"/>
      </g>
     </g>
     <g id="text_12">
      <!-- $\mathdefault{10^{6}}$ -->
      <g style="fill: #e0e0e0" transform="translate(24.885185 71.373221) scale(0.1 -0.1)">
       <use xlink:href="#DejaVuSans-31" transform="translate(0 0.765625)"/>
       <use xlink:href="#DejaVuSans-30" transform="translate(63.623047 0.765625)"/>
       <use xlink:href="#DejaVuSans-36" transform="translate(128.203125 39.046875) scale(0.7)"/>
      </g>
     </g>
    </g>
    <g id="text_13">
     <!-- Takedowns per day -->
     <g style="fill: #e0e0e0" transform="translate(18.805497 166.457601) rotate(-90) scale(0.1 -0.1)">
      <defs>
       <path id="DejaVuSans-54" d="M -19 4666 
L 3928 4666 
L 3928 4134 
L 2272 4134 
L 2272 0 
L 1638 0 
L 1638 4134 
L -19 4134 
L -19 4666 
z
" transform="scale(0.015625)"/>
       <path id="DejaVuSans-6b" d="M 581 4863 
L 1159 4863 
L 1159 1991 
L 2875 3500 
L 3609 3500 
L 1753 1863 
L 3688 0 
L 2938 0 
L 1159 1709 
L 1159 0 
L 581 0 
L 581 4863 
z
" transform="scale(0.015625)"/>
       <path id="DejaVuSans-64" d="M 2906 2969 
L 2906 4863 
L 3481 4863 
L 3481 0 
L 2906 0 
L 2906 525 
Q 2725 213 2448 61 
Q 2172 -91 1784 -91 
Q 1150 -91 751 415 
Q 353 922 353 1747 
Q 353 2572 751 3078 
Q 1150 3584 1784 3584 
Q 2172 3584 2448 3432 
Q 2725 3281 2906 2969 
z
M 947 1747 
Q 947 1113 1208 752 
Q 1469 391 1925 391 
Q 2381 391 2643 752 
Q 2906 1113 2906 1747 
Q 2906 2381 2643 2742 
Q 2381 3103 1925 3103 
Q 1469 3103 1208 2742 
Q 947 2381 947 1747 
z
" transform="scale(0.015625)"/>
       <path id="DejaVuSans-6f" d="M 1959 3097 
Q 1497 3097 1228 2736 
Q 959 2375 959 1747 
Q 959 1119 1226 758 
Q 1494 397 1959 397 
Q 2419 397 2687 759 
Q 2956 1122 2956 1747 
Q 2956 2369 2687 2733 
Q 2419 3097 1959 3097 
z
M 1959 3584 
Q 2709 3584 3137 3096 
Q 3566 2609 3566 1747 
Q 3566 888 3137 398 
Q 2709 -91 1959 -91 
Q 1206 -91 779 398 
Q 353 888 353 1747 
Q 353 2609 779 3096 
Q 1206 3584 1959 3584 
z
" transform="scale(0.015625)"/>
       <path id="DejaVuSans-77" d="M 269 3500 
L 844 3500 
L 1563 769 
L 2278 3500 
L 2956 3500 
L 3675 769 
L 4391 3500 
L 4966 3500 
L 4050 0 
L 3372 0 
L 2619 2869 
L 1863 0 
L 1184 0 
L 269 3500 
z
" transform="scale(0.015625)"/>
       <path id="DejaVuSans-6e" d="M 3513 2113 
L 3513 0 
L 2938 0 
L 2938 2094 
Q 2938 2591 2744 2837 
Q 2550 3084 2163 3084 
Q 1697 3084 1428 2787 
Q 1159 2491 1159 1978 
L 1159 0 
L 581 0 
L 581 3500 
L 1159 3500 
L 1159 2956 
Q 1366 3272 1645 3428 
Q 1925 3584 2291 3584 
Q 2894 3584 3203 3211 
Q 3513 2838 3513 2113 
z
" transform="scale(0.015625)"/>
       <path id="DejaVuSans-73" d="M 2834 3397 
L 2834 2853 
Q 2591 2978 2328 3040 
Q 2066 3103 1784 3103 
Q 1356 3103 1142 2972 
Q 928 2841 928 2578 
Q 928 2378 1081 2264 
Q 1234 2150 1697 2047 
L 1894 2003 
Q 2506 1872 2764 1633 
Q 3022 1394 3022 966 
Q 3022 478 2636 193 
Q 2250 -91 1575 -91 
Q 1294 -91 989 -36 
Q 684 19 347 128 
L 347 722 
Q 666 556 975 473 
Q 1284 391 1588 391 
Q 1994 391 2212 530 
Q 2431 669 2431 922 
Q 2431 1156 2273 1281 
Q 2116 1406 1581 1522 
L 1381 1569 
Q 847 1681 609 1914 
Q 372 2147 372 2553 
Q 372 3047 722 3315 
Q 1072 3584 1716 3584 
Q 2034 3584 2315 3537 
Q 2597 3491 2834 3397 
z
" transform="scale(0.015625)"/>
       <path id="DejaVuSans-20" transform="scale(0.015625)"/>
       <path id="DejaVuSans-70" d="M 1159 525 
L 1159 -1331 
L 581 -1331 
L 581 3500 
L 1159 3500 
L 1159 2969 
Q 1341 3281 1617 3432 
Q 1894 3584 2278 3584 
Q 2916 3584 3314 3078 
Q 3713 2572 3713 1747 
Q 3713 922 3314 415 
Q 2916 -91 2278 -91 
Q 1894 -91 1617 61 
Q 1341 213 1159 525 
z
M 3116 1747 
Q 3116 2381 2855 2742 
Q 2594 3103 2138 3103 
Q 1681 3103 1420 2742 
Q 1159 2381 1159 1747 
Q 1159 1113 1420 752 
Q 1681 391 2138 391 
Q 2594 391 2855 752 
Q 3116 1113 3116 1747 
z
" transform="scale(0.015625)"/>
       <path id="DejaVuSans-72" d="M 2631 2963 
Q 2534 3019 2420 3045 
Q 2306 3072 2169 3072 
Q 1681 3072 1420 2755 
Q 1159 2438 1159 1844 
L 1159 0 
L 581 0 
L 581 3500 
L 1159 3500 
L 1159 2956 
Q 1341 3275 1631 3429 
Q 1922 3584 2338 3584 
Q 2397 3584 2469 3576 
Q 2541 3569 2628 3553 
L 2631 2963 
z
" transform="scale(0.015625)"/>
       <path id="DejaVuSans-79" d="M 2059 -325 
Q 1816 -950 1584 -1140 
Q 1353 -1331 966 -1331 
L 506 -1331 
L 506 -850 
L 844 -850 
Q 1081 -850 1212 -737 
Q 1344 -625 1503 -206 
L 1606 56 
L 191 3500 
L 800 3500 
L 1894 763 
L 2988 3500 
L 3597 3500 
L 2059 -325 
z
" transform="scale(0.015625)"/>
      </defs>
      <use xlink:href="#DejaVuSans-54"/>
      <use xlink:href="#DejaVuSans-61" transform="translate(44.583984 0)"/>
      <use xlink:href="#DejaVuSans-6b" transform="translate(105.863281 0)"/>
      <use xlink:href="#DejaVuSans-65" transform="translate(160.148438 0)"/>
      <use xlink:href="#DejaVuSans-64" transform="translate(221.671875 0)"/>
      <use xlink:href="#DejaVuSans-6f" transform="translate(285.148438 0)"/>
      <use xlink:href="#DejaVuSans-77" transform="translate(346.330078 0)"/>
      <use xlink:href="#DejaVuSans-6e" transform="translate(428.117188 0)"/>
      <use xlink:href="#DejaVuSans-73" transform="translate(491.496094 0)"/>
      <use xlink:href="#DejaVuSans-20" transform="translate(543.595703 0)"/>
      <use xlink:href="#DejaVuSans-70" transform="translate(575.382812 0)"/>
      <use xlink:href="#DejaVuSans-65" transform="translate(638.859375 0)"/>
      <use xlink:href="#DejaVuSans-72" transform="translate(700.382812 0)"/>
      <use xlink:href="#DejaVuSans-20" transform="translate(741.496094 0)"/>
      <use xlink:href="#DejaVuSans-64" transform="translate(773.283203 0)"/>
      <use xlink:href="#DejaVuSans-61" transform="translate(836.759766 0)"/>
      <use xlink:href="#DejaVuSans-79" transform="translate(898.039062 0)"/>
     </g>
    </g>
   </g>
   <g id="line2d_16">
    <path d="M 92.563131 114.47265 
L 94.930051 117.36594 
L 97.296971 126.78714 
L 99.663891 121.741599 
L 102.030811 114.11336 
L 104.397732 126.777795 
L 106.764652 133.250253 
L 109.131572 135.385297 
L 111.498492 137.110511 
L 113.865412 142.109004 
L 116.232332 133.857837 
L 118.599252 135.489416 
L 120.966172 111.55252 
L 123.333092 96.252491 
L 125.700013 128.024696 
L 128.066933 109.629772 
L 130.433853 131.879349 
L 132.800773 139.485002 
L 135.167693 117.692384 
L 137.534613 112.996098 
L 139.901533 133.577932 
L 142.268453 104.502906 
L 144.635374 111.081292 
L 147.002294 96.052065 
L 149.369214 87.623838 
L 151.736134 140.503873 
L 154.103054 139.052766 
L 156.469974 125.387991 
L 158.836894 131.880831 
L 161.203814 119.564254 
L 163.570734 98.076352 
L 165.937655 111.993691 
L 168.304575 115.232637 
L 170.671495 106.887825 
L 173.038415 116.613067 
L 175.405335 154.372013 
L 177.772255 143.131953 
L 180.139175 151.329443 
L 182.506095 115.1169 
L 184.873016 115.749011 
L 187.239936 153.05417 
L 189.606856 152.933937 
L 191.973776 141.472634 
L 194.340696 105.229235 
L 196.707616 145.031208 
L 199.074536 150.891957 
L 201.441456 144.863673 
L 203.808376 129.565673 
L 206.175297 151.361956 
L 208.542217 146.2146 
L 210.909137 145.674966 
L 213.276057 151.866818 
L 215.642977 147.711873 
L 218.009897 147.940455 
L 220.376817 165.039916 
L 222.743737 155.010646 
L 225.110658 144.322978 
L 227.477578 133.113432 
L 229.844498 115.383491 
L 232.211418 134.081574 
L 234.578338 119.631333 
L 236.945258 108.383868 
L 239.312178 123.798539 
L 241.679098 154.572886 
L 244.046018 152.946688 
L 246.412939 153.628519 
L 248.779859 153.333705 
L 251.146779 154.283491 
L 253.513699 152.86271 
L 255.880619 150.489697 
L 258.247539 147.052987 
L 260.614459 149.009804 
L 262.981379 158.850407 
L 265.3483 157.214594 
L 267.71522 165.274894 
L 270.08214 155.409762 
L 272.44906 153.652432 
L 274.81598 153.735058 
L 277.1829 150.801742 
L 279.54982 150.445582 
L 281.91674 155.617354 
L 284.28366 154.696818 
L 286.650581 151.204613 
L 289.017501 146.216319 
L 291.384421 114.331995 
L 293.751341 114.998364 
L 296.118261 113.749711 
L 298.485181 119.291819 
L 300.852101 131.441738 
L 303.219021 128.165996 
L 305.585942 130.230842 
L 307.952862 137.407273 
L 310.319782 147.577298 
L 312.686702 153.260792 
L 315.053622 151.596013 
L 319.787462 152.249403 
L 322.154382 147.622039 
L 324.521302 145.317405 
L 326.888223 40.017807 
L 329.255143 70.604309 
L 331.622063 148.442245 
L 333.988983 152.081268 
L 336.355903 152.839879 
L 338.722823 152.941586 
L 341.089743 153.828828 
L 343.456663 152.776619 
L 348.190504 147.07828 
L 350.557424 153.05417 
L 352.924344 152.401909 
L 355.291264 144.444929 
L 357.658184 150.61828 
L 360.025104 143.071815 
L 362.392024 155.842617 
L 364.758944 156.268141 
L 367.125865 157.910177 
L 369.492785 154.739274 
L 371.859705 159.542356 
L 374.226625 119.503535 
L 376.593545 119.716824 
L 378.960465 143.413976 
L 381.327385 144.493023 
L 383.694305 118.165209 
L 386.061226 151.359631 
L 388.428146 124.080007 
L 390.795066 107.808463 
L 393.161986 112.636822 
L 395.528906 150.124791 
L 397.895826 152.271456 
L 400.262746 160.752525 
L 402.629666 153.898822 
L 404.996586 155.698106 
L 407.363507 153.237422 
L 409.730427 156.726837 
L 412.097347 153.783218 
L 414.464267 155.271783 
L 416.831187 156.973816 
L 419.198107 154.419229 
L 421.565027 107.680004 
L 423.931947 112.662732 
L 426.298868 148.951181 
L 428.665788 116.850216 
L 431.032708 114.406565 
L 433.399628 157.585608 
L 435.766548 129.916801 
L 438.133468 143.691848 
L 440.500388 120.28923 
L 442.867308 122.192884 
L 445.234228 110.187619 
L 447.601149 108.339655 
L 449.968069 111.808404 
L 452.334989 111.221915 
L 454.701909 99.707837 
L 457.068829 111.329704 
L 459.435749 89.445604 
L 461.802669 100.916917 
L 464.169589 108.779955 
L 466.53651 110.703236 
L 468.90343 105.467157 
L 471.27035 139.478054 
L 473.63727 141.380489 
L 476.00419 134.335662 
L 478.37111 142.55239 
L 480.73803 144.358393 
L 483.10495 142.121166 
L 485.47187 144.35531 
L 490.205711 152.220043 
L 492.572631 154.491694 
L 494.939551 155.045234 
L 497.306471 157.323074 
L 499.673391 165.123093 
L 502.040311 163.95016 
L 504.407231 164.463755 
L 506.774152 133.347736 
L 509.141072 141.029486 
L 511.507992 137.85286 
L 513.874912 146.830581 
L 516.241832 116.97746 
L 518.608752 101.092478 
L 520.975672 116.067921 
L 523.342592 118.504776 
L 525.709513 165.243376 
L 528.076433 164.513964 
L 530.443353 166.0054 
L 532.810273 158.9517 
L 535.177193 154.05056 
L 537.544113 159.170804 
L 539.911033 157.575564 
L 542.277953 160.1659 
L 544.644873 157.532109 
L 547.011794 161.642377 
L 549.378714 167.579652 
L 551.745634 164.018403 
L 554.112554 156.93509 
L 556.479474 162.11627 
L 558.846394 163.589153 
L 561.213314 160.967608 
L 563.580234 163.291706 
L 565.947155 166.699884 
L 568.314075 117.728219 
L 570.680995 105.749528 
L 573.047915 172.701589 
L 575.414835 168.776362 
L 577.781755 158.660306 
L 580.148675 175.210452 
L 582.515595 183.046045 
L 584.882515 197.173957 
L 587.249436 195.577262 
L 589.616356 195.269005 
L 591.983276 173.697449 
L 594.350196 149.559229 
L 596.717116 146.07936 
L 599.084036 184.123324 
L 601.450956 159.355568 
L 603.817876 164.599661 
L 606.184797 151.257669 
L 608.551717 143.460706 
L 610.918637 185.020266 
L 613.285557 194.816827 
L 615.652477 169.890273 
L 618.019397 139.371884 
L 620.386317 121.427962 
L 622.753237 116.04097 
L 625.120157 114.827951 
L 627.487078 109.888143 
L 629.853998 110.718224 
L 632.220918 115.850889 
L 634.587838 106.867134 
L 636.954758 109.777106 
L 639.321678 104.713055 
L 641.688598 113.72184 
L 644.055518 117.610346 
L 648.789359 110.700882 
L 651.156279 86.632181 
L 653.523199 102.51481 
L 655.890119 109.134051 
L 658.257039 112.119507 
L 660.623959 117.041284 
L 662.990879 111.986536 
L 665.357799 108.826093 
L 667.72472 115.616017 
L 670.09164 116.261341 
L 672.45856 105.911947 
L 674.82548 111.565573 
L 677.1924 106.892787 
L 679.55932 96.312833 
L 681.92624 102.216788 
L 684.29316 100.769536 
L 686.660081 107.050976 
L 693.760841 117.17685 
L 696.127761 110.070496 
L 698.494681 113.60193 
L 700.861601 94.021353 
L 703.228521 108.137777 
L 705.595441 111.466356 
L 707.962362 88.736423 
L 710.329282 108.38144 
L 712.696202 111.819597 
L 715.063122 103.407545 
L 717.430042 108.617838 
L 719.796962 106.880982 
L 722.163882 110.519741 
L 724.530802 113.058154 
L 726.897723 107.382745 
L 729.264643 114.476121 
L 731.631563 107.391906 
L 733.998483 110.740731 
L 736.365403 92.832878 
L 738.732323 99.019043 
L 741.099243 101.679239 
L 743.466163 113.407196 
L 745.833083 117.078574 
L 748.200004 116.761127 
L 750.566924 90.054035 
L 755.300764 113.03728 
L 757.667684 108.032786 
L 760.034604 124.898701 
L 762.401524 122.289322 
L 764.768444 124.927271 
L 767.135365 122.76423 
L 769.502285 120.115481 
L 771.869205 97.438961 
L 774.236125 98.271022 
L 776.603045 118.351569 
L 778.969965 120.447322 
L 781.336885 101.240725 
L 783.703805 101.637064 
L 786.070725 120.167979 
L 788.437646 122.221464 
L 790.804566 121.20855 
L 793.171486 119.221828 
L 795.538406 105.088553 
L 797.905326 105.845345 
L 800.272246 107.090927 
L 802.639166 112.925731 
L 805.006086 105.776277 
L 807.373007 89.530375 
L 809.739927 99.215464 
L 812.106847 115.884211 
L 814.473767 116.654892 
L 816.840687 111.98446 
L 819.207607 114.315851 
L 821.574527 107.137221 
L 823.941447 108.086669 
L 826.308367 110.394226 
L 828.675288 107.294025 
L 831.042208 112.393564 
L 833.409128 116.024586 
L 835.776048 117.447762 
L 838.142968 115.9269 
L 840.509888 114.267244 
L 842.876808 116.024001 
L 845.243728 113.500502 
L 847.610649 113.732318 
L 849.977569 116.125776 
L 852.344489 116.120482 
L 854.711409 120.888138 
L 857.078329 155.731115 
L 861.812169 156.562047 
L 864.179089 157.362693 
L 866.546009 146.392552 
L 868.91293 139.376486 
L 871.27985 134.335662 
L 873.64677 140.518633 
L 876.01369 137.381662 
L 878.38061 136.490224 
L 880.74753 135.950915 
L 883.11445 134.865203 
L 885.48137 134.824626 
L 887.848291 140.622309 
L 890.215211 150.745599 
L 892.582131 145.346781 
L 894.949051 141.90624 
L 897.315971 143.589877 
L 899.682891 140.393582 
L 902.049811 145.643357 
L 904.416731 141.814383 
L 909.150572 143.247091 
L 911.517492 145.176131 
L 913.884412 145.184219 
L 916.251332 156.736392 
L 918.618252 148.516837 
L 923.352092 136.863454 
L 925.719012 136.99604 
L 928.085933 138.348285 
L 930.452853 145.343514 
L 932.819773 154.242153 
L 935.186693 155.611388 
L 937.553613 144.505456 
L 939.920533 139.203602 
L 942.287453 146.12717 
L 944.654373 146.323224 
L 947.021293 160.444804 
L 949.388214 172.363554 
L 951.755134 170.687526 
L 954.122054 156.299168 
L 954.122054 156.299168 
" clip-path="url(#pe318a84891)" style="fill: none; stroke: #4ea1ff; stroke-width: 1.4; stroke-linecap: square"/>
   </g>
   <g id="patch_3">
    <path d="M 49.485185 205.031765 
L 49.485185 32.16 
" style="fill: none; stroke: #333333; stroke-width: 0.8; stroke-linejoin: miter; stroke-linecap: square"/>
   </g>
   <g id="patch_4">
    <path d="M 997.2 205.031765 
L 997.2 32.16 
" style="fill: none; stroke: #333333; stroke-width: 0.8; stroke-linejoin: miter; stroke-linecap: square"/>
   </g>
   <g id="patch_5">
    <path d="M 49.485185 205.031765 
L 997.2 205.031765 
" style="fill: none; stroke: #333333; stroke-width: 0.8; stroke-linejoin: miter; stroke-linecap: square"/>
   </g>
   <g id="patch_6">
    <path d="M 49.485185 32.16 
L 997.2 32.16 
" style="fill: none; stroke: #333333; stroke-width: 0.8; stroke-linejoin: miter; stroke-linecap: square"/>
   </g>
   <g id="text_14">
    <!-- Taken down domains per day (2025, UTC) -->
    <g style="fill: #e0e0e0" transform="translate(398.255717 20.16) scale(0.12 -0.12)">
     <defs>
      <path id="DejaVuSans-6d" d="M 3328 2828 
Q 3544 3216 3844 3400 
Q 4144 3584 4550 3584 
Q 5097 3584 5394 3201 
Q 5691 2819 5691 2113 
L 5691 0 
L 5113 0 
L 5113 2094 
Q 5113 2597 4934 2840 
Q 4756 3084 4391 3084 
Q 3944 3084 3684 2787 
Q 3425 2491 3425 1978 
L 3425 0 
L 2847 0 
L 2847 2094 
Q 2847 2600 2669 2842 
Q 2491 3084 2119 3084 
Q 1678 3084 1418 2786 
Q 1159 2488 1159 1978 
L 1159 0 
L 581 0 
L 581 3500 
L 1159 3500 
L 1159 2956 
Q 1356 3278 1631 3431 
Q 1906 3584 2284 3584 
Q 2666 3584 2933 3390 
Q 3200 3197 3328 2828 
z
" transform="scale(0.015625)"/>
      <path id="DejaVuSans-69" d="M 603 3500 
L 1178 3500 
L 1178 0 
L 603 0 
L 603 3500 
z
M 603 4863 
L 1178 4863 
L 1178 4134 
L 603 4134 
L 603 4863 
z
" transform="scale(0.015625)"/>
      <path id="DejaVuSans-28" d="M 1984 4856 
Q 1566 4138 1362 3434 
Q 1159 2731 1159 2009 
Q 1159 1288 1364 580 
Q 1569 -128 1984 -844 
L 1484 -844 
Q 1016 -109 783 600 
Q 550 1309 550 2009 
Q 550 2706 781 3412 
Q 1013 4119 1484 4856 
L 1984 4856 
z
" transform="scale(0.015625)"/>
      <path id="DejaVuSans-2c" d="M 750 794 
L 1409 794 
L 1409 256 
L 897 -744 
L 494 -744 
L 750 256 
L 750 794 
z
" transform="scale(0.015625)"/>
      <path id="DejaVuSans-55" d="M 556 4666 
L 1191 4666 
L 1191 1831 
Q 1191 1081 1462 751 
Q 1734 422 2344 422 
Q 2950 422 3222 751 
Q 3494 1081 3494 1831 
L 3494 4666 
L 4128 4666 
L 4128 1753 
Q 4128 841 3676 375 
Q 3225 -91 2344 -91 
Q 1459 -91 1007 375 
Q 556 841 556 1753 
L 556 4666 
z
" transform="scale(0.015625)"/>
      <path id="DejaVuSans-43" d="M 4122 4306 
L 4122 3641 
Q 3803 3938 3442 4084 
Q 3081 4231 2675 4231 
Q 1875 4231 1450 3742 
Q 1025 3253 1025 2328 
Q 1025 1406 1450 917 
Q 1875 428 2675 428 
Q 3081 428 3442 575 
Q 3803 722 4122 1019 
L 4122 359 
Q 3791 134 3420 21 
Q 3050 -91 2638 -91 
Q 1578 -91 968 557 
Q 359 1206 359 2328 
Q 359 3453 968 4101 
Q 1578 4750 2638 4750 
Q 3056 4750 3426 4639 
Q 3797 4528 4122 4306 
z
" transform="scale(0.015625)"/>
      <path id="DejaVuSans-29" d="M 513 4856 
L 1013 4856 
Q 1481 4119 1714 3412 
Q 1947 2706 1947 2009 
Q 1947 1309 1714 600 
Q 1481 -109 1013 -844 
L 513 -844 
Q 928 -128 1133 580 
Q 1338 1288 1338 2009 
Q 1338 2731 1133 3434 
Q 928 4138 513 4856 
z
" transform="scale(0.015625)"/>
     </defs>
     <use xlink:href="#DejaVuSans-54"/>
     <use xlink:href="#DejaVuSans-61" transform="translate(44.583984 0)"/>
     <use xlink:href="#DejaVuSans-6b" transform="translate(105.863281 0)"/>
     <use xlink:href="#DejaVuSans-65" transform="translate(160.148438 0)"/>
     <use xlink:href="#DejaVuSans-6e" transform="translate(221.671875 0)"/>
     <use xlink:href="#DejaVuSans-20" transform="translate(285.050781 0)"/>
     <use xlink:href="#DejaVuSans-64" transform="translate(316.837891 0)"/>
     <use xlink:href="#DejaVuSans-6f" transform="translate(380.314453 0)"/>
     <use xlink:href="#DejaVuSans-77" transform="translate(441.496094 0)"/>
     <use xlink:href="#DejaVuSans-6e" transform="translate(523.283203 0)"/>
     <use xlink:href="#DejaVuSans-20" transform="translate(586.662109 0)"/>
     <use xlink:href="#DejaVuSans-64" transform="translate(618.449219 0)"/>
     <use xlink:href="#DejaVuSans-6f" transform="translate(681.925781 0)"/>
     <use xlink:href="#DejaVuSans-6d" transform="translate(743.107422 0)"/>
     <use xlink:href="#DejaVuSans-61" transform="translate(840.519531 0)"/>
     <use xlink:href="#DejaVuSans-69" transform="translate(901.798828 0)"/>
     <use xlink:href="#DejaVuSans-6e" transform="translate(929.582031 0)"/>
     <use xlink:href="#DejaVuSans-73" transform="translate(992.960938 0)"/>
     <use xlink:href="#DejaVuSans-20" transform="translate(1045.060547 0)"/>
     <use xlink:href="#DejaVuSans-70" transform="translate(1076.847656 0)"/>
     <use xlink:href="#DejaVuSans-65" transform="translate(1140.324219 0)"/>
     <use xlink:href="#DejaVuSans-72" transform="translate(1201.847656 0)"/>
     <use xlink:href="#DejaVuSans-20" transform="translate(1242.960938 0)"/>
     <use xlink:href="#DejaVuSans-64" transform="translate(1274.748047 0)"/>
     <use xlink:href="#DejaVuSans-61" transform="translate(1338.224609 0)"/>
     <use xlink:href="#DejaVuSans-79" transform="translate(1399.503906 0)"/>
     <use xlink:href="#DejaVuSans-20" transform="translate(1458.683594 0)"/>
     <use xlink:href="#DejaVuSans-28" transform="translate(1490.470703 0)"/>
     <use xlink:href="#DejaVuSans-32" transform="translate(1529.484375 0)"/>
     <use xlink:href="#DejaVuSans-30" transform="translate(1593.107422 0)"/>
     <use xlink:href="#DejaVuSans-32" transform="translate(1656.730469 0)"/>
     <use xlink:href="#DejaVuSans-35" transform="translate(1720.353516 0)"/>
     <use xlink:href="#DejaVuSans-2c" transform="translate(1783.976562 0)"/>
     <use xlink:href="#DejaVuSans-20" transform="translate(1815.763672 0)"/>
     <use xlink:href="#DejaVuSans-55" transform="translate(1847.550781 0)"/>
     <use xlink:href="#DejaVuSans-54" transform="translate(1920.744141 0)"/>
     <use xlink:href="#DejaVuSans-43" transform="translate(1975.953125 0)"/>
     <use xlink:href="#DejaVuSans-29" transform="translate(2045.777344 0)"/>
    </g>
   </g>
  </g>
 </g>
 <defs>
  <clipPath id="pe318a84891">
   <rect x="49.485185" y="32.16" width="947.714815" height="172.871765"/>
  </clipPath>
 </defs>
</svg>
