<svg xmlns="http://www.w3.org/2000/svg" xmlns:xlink="http://www.w3.org/1999/xlink" width="500" zoomAndPan="magnify" viewBox="0 0 375 374.999991" height="500" preserveAspectRatio="xMidYMid meet" version="1.0"><defs><clipPath id="4cd6a29359"><path d="M 95.527344 29.03125 L 139.097656 29.03125 L 139.097656 72.601562 L 95.527344 72.601562 Z M 95.527344 29.03125 " clip-rule="nonzero"/></clipPath><clipPath id="f4473dedff"><path d="M 117.3125 29.03125 C 105.28125 29.03125 95.527344 38.785156 95.527344 50.816406 C 95.527344 62.847656 105.28125 72.601562 117.3125 72.601562 C 129.34375 72.601562 139.097656 62.847656 139.097656 50.816406 C 139.097656 38.785156 129.34375 29.03125 117.3125 29.03125 Z M 117.3125 29.03125 " clip-rule="nonzero"/></clipPath><clipPath id="abbe6a84aa"><path d="M 117.3125 40.589844 L 260.011719 40.589844 L 260.011719 60.117188 L 117.3125 60.117188 Z M 117.3125 40.589844 " clip-rule="nonzero"/></clipPath><clipPath id="31bea25e6d"><path d="M 171 50 L 261 50 L 261 204 L 171 204 Z M 171 50 " clip-rule="nonzero"/></clipPath><clipPath id="896e1389dc"><path d="M 171.210938 193.28125 L 240.550781 50.8125 L 260.933594 60.734375 L 191.59375 203.203125 Z M 171.210938 193.28125 " clip-rule="nonzero"/></clipPath><clipPath id="58d1a668cb"><path d="M 117 45 L 221 45 L 221 228 L 117 228 Z M 117 45 " clip-rule="nonzero"/></clipPath><clipPath id="e9c2a66862"><path d="M 117.3125 217.746094 L 201.035156 45.730469 L 220.375 55.144531 L 136.652344 227.15625 Z M 117.3125 217.746094 " clip-rule="nonzero"/></clipPath><clipPath id="d6fd09a4e2"><path d="M 43.265625 205.375 L 86.839844 205.375 L 86.839844 248.945312 L 43.265625 248.945312 Z M 43.265625 205.375 " clip-rule="nonzero"/></clipPath><clipPath id="f5d072d4a8"><path d="M 65.050781 205.375 C 53.019531 205.375 43.265625 215.128906 43.265625 227.160156 C 43.265625 239.191406 53.019531 248.945312 65.050781 248.945312 C 77.085938 248.945312 86.839844 239.191406 86.839844 227.160156 C 86.839844 215.128906 77.085938 205.375 65.050781 205.375 Z M 65.050781 205.375 " clip-rule="nonzero"/></clipPath><clipPath id="51a3660c89"><path d="M 65.050781 216.933594 L 272.609375 216.933594 L 272.609375 237.386719 L 65.050781 237.386719 Z M 65.050781 216.933594 " clip-rule="nonzero"/></clipPath><clipPath id="fa39d32098"><path d="M 281 155 L 326 155 L 326 199 L 281 199 Z M 281 155 " clip-rule="nonzero"/></clipPath><clipPath id="94e4e0fd5d"><path d="M 331.730469 165.191406 L 314.882812 205.375 L 274.699219 188.523438 L 291.550781 148.34375 Z M 331.730469 165.191406 " clip-rule="nonzero"/></clipPath><clipPath id="ad51573aa4"><path d="M 323.308594 185.285156 C 327.960938 174.1875 322.738281 161.421875 311.640625 156.765625 C 300.542969 152.113281 287.777344 157.339844 283.125 168.433594 C 278.472656 179.53125 283.695312 192.296875 294.792969 196.949219 C 305.886719 201.601562 318.65625 196.378906 323.308594 185.285156 Z M 323.308594 185.285156 " clip-rule="nonzero"/></clipPath><clipPath id="5ab5322867"><path d="M 246 170 L 314 170 L 314 278 L 246 278 Z M 246 170 " clip-rule="nonzero"/></clipPath><clipPath id="d3acc4d900"><path d="M 313.164062 179.636719 L 265.363281 277.378906 L 246.992188 268.394531 L 294.792969 170.652344 Z M 313.164062 179.636719 " clip-rule="nonzero"/></clipPath><clipPath id="2f8c3ed8b4"><path d="M 184.769531 257.808594 L 265.09375 257.808594 L 265.09375 277.378906 L 184.769531 277.378906 Z M 184.769531 257.808594 " clip-rule="nonzero"/></clipPath><clipPath id="3eb64c8d70"><path d="M 103 295 L 148 295 L 148 340 L 103 340 Z M 103 295 " clip-rule="nonzero"/></clipPath><clipPath id="fc786f3508"><path d="M 96.730469 329.121094 L 113.582031 288.9375 L 153.765625 305.789062 L 136.914062 345.96875 Z M 96.730469 329.121094 " clip-rule="nonzero"/></clipPath><clipPath id="43fe818e9d"><path d="M 105.15625 309.027344 C 100.503906 320.125 105.726562 332.890625 116.824219 337.546875 C 127.917969 342.199219 140.6875 336.972656 145.339844 325.878906 C 149.992188 314.78125 144.769531 302.015625 133.671875 297.363281 C 122.578125 292.710938 109.808594 297.933594 105.15625 309.027344 Z M 105.15625 309.027344 " clip-rule="nonzero"/></clipPath><clipPath id="e4e91d72ba"><path d="M 115 216 L 182 216 L 182 324 L 115 324 Z M 115 216 " clip-rule="nonzero"/></clipPath><clipPath id="840377634e"><path d="M 115.292969 314.671875 L 163.09375 216.929688 L 181.464844 225.914062 L 133.664062 323.65625 Z M 115.292969 314.671875 " clip-rule="nonzero"/></clipPath><clipPath id="90058aa9cf"><path d="M 166.789062 180.199219 L 202.796875 180.199219 L 202.796875 202.734375 L 166.789062 202.734375 Z M 166.789062 180.199219 " clip-rule="nonzero"/></clipPath><clipPath id="4d2cc42449"><path d="M 177.816406 180.199219 L 202.75 180.199219 L 191.722656 202.734375 L 166.789062 202.734375 Z M 177.816406 180.199219 " clip-rule="nonzero"/></clipPath><clipPath id="bd5879cb17"><path d="M 236.050781 40.589844 L 270.738281 40.589844 L 270.738281 63.128906 L 236.050781 63.128906 Z M 236.050781 40.589844 " clip-rule="nonzero"/></clipPath><clipPath id="a4f04cb664"><path d="M 247.082031 40.589844 L 270.722656 40.589844 L 259.695312 63.128906 L 236.050781 63.128906 Z M 247.082031 40.589844 " clip-rule="nonzero"/></clipPath><clipPath id="f190332d58"><path d="M 171.210938 257.808594 L 206.679688 257.808594 L 206.679688 277.378906 L 171.210938 277.378906 Z M 171.210938 257.808594 " clip-rule="nonzero"/></clipPath><clipPath id="4821019cf2"><path d="M 182.238281 257.808594 L 206.632812 257.808594 L 195.605469 277.378906 L 171.210938 277.378906 Z M 182.238281 257.808594 " clip-rule="nonzero"/></clipPath><clipPath id="0794c3c20e"><path d="M 86.839844 257.808594 L 122.304688 257.808594 L 122.304688 277.378906 L 86.839844 277.378906 Z M 86.839844 257.808594 " clip-rule="nonzero"/></clipPath><clipPath id="b3de62d6fc"><path d="M 97.867188 257.808594 L 122.261719 257.808594 L 111.230469 277.378906 L 86.839844 277.378906 Z M 97.867188 257.808594 " clip-rule="nonzero"/></clipPath></defs><g clip-path="url(#4cd6a29359)"><g clip-path="url(#f4473dedff)"><path fill="#f9fafb" d="M 95.527344 29.03125 L 139.097656 29.03125 L 139.097656 72.601562 L 95.527344 72.601562 Z M 95.527344 29.03125 " fill-opacity="1" fill-rule="nonzero"/></g></g><g clip-path="url(#abbe6a84aa)"><path fill="#f9fafb" d="M 117.3125 40.589844 L 260.035156 40.589844 L 260.035156 60.117188 L 117.3125 60.117188 Z M 117.3125 40.589844 " fill-opacity="1" fill-rule="nonzero"/></g><g clip-path="url(#31bea25e6d)"><g clip-path="url(#896e1389dc)"><path fill="#f9fafb" d="M 171.210938 193.28125 L 240.535156 50.84375 L 260.917969 60.765625 L 191.59375 203.203125 Z M 171.210938 193.28125 " fill-opacity="1" fill-rule="nonzero"/></g></g><g clip-path="url(#58d1a668cb)"><g clip-path="url(#e9c2a66862)"><path fill="#f9fafb" d="M 117.3125 217.746094 L 201.042969 45.714844 L 220.382812 55.128906 L 136.652344 227.15625 Z M 117.3125 217.746094 " fill-opacity="1" fill-rule="nonzero"/></g></g><g clip-path="url(#d6fd09a4e2)"><g clip-path="url(#f5d072d4a8)"><path fill="#f9fafb" d="M 43.265625 205.375 L 86.839844 205.375 L 86.839844 248.945312 L 43.265625 248.945312 Z M 43.265625 205.375 " fill-opacity="1" fill-rule="nonzero"/></g></g><g clip-path="url(#51a3660c89)"><path fill="#f9fafb" d="M 65.050781 216.933594 L 272.597656 216.933594 L 272.597656 237.386719 L 65.050781 237.386719 Z M 65.050781 216.933594 " fill-opacity="1" fill-rule="nonzero"/></g><g clip-path="url(#fa39d32098)"><g clip-path="url(#94e4e0fd5d)"><g clip-path="url(#ad51573aa4)"><path fill="#f9fafb" d="M 331.730469 165.191406 L 314.882812 205.375 L 274.699219 188.523438 L 291.550781 148.34375 Z M 331.730469 165.191406 " fill-opacity="1" fill-rule="nonzero"/></g></g></g><g clip-path="url(#5ab5322867)"><g clip-path="url(#d3acc4d900)"><path fill="#f9fafb" d="M 313.164062 179.636719 L 265.363281 277.378906 L 246.992188 268.394531 L 294.792969 170.652344 Z M 313.164062 179.636719 " fill-opacity="1" fill-rule="nonzero"/></g></g><g clip-path="url(#2f8c3ed8b4)"><path fill="#f9fafb" d="M 184.769531 257.808594 L 265.105469 257.808594 L 265.105469 277.378906 L 184.769531 277.378906 Z M 184.769531 257.808594 " fill-opacity="1" fill-rule="nonzero"/></g><g clip-path="url(#3eb64c8d70)"><g clip-path="url(#fc786f3508)"><g clip-path="url(#43fe818e9d)"><path fill="#f9fafb" d="M 96.730469 329.121094 L 113.582031 288.9375 L 153.765625 305.789062 L 136.914062 345.96875 Z M 96.730469 329.121094 " fill-opacity="1" fill-rule="nonzero"/></g></g></g><g clip-path="url(#e4e91d72ba)"><g clip-path="url(#840377634e)"><path fill="#f9fafb" d="M 115.292969 314.671875 L 163.09375 216.929688 L 181.464844 225.914062 L 133.664062 323.65625 Z M 115.292969 314.671875 " fill-opacity="1" fill-rule="nonzero"/></g></g><g clip-path="url(#90058aa9cf)"><g clip-path="url(#4d2cc42449)"><path fill="#f9fafb" d="M 166.789062 180.199219 L 202.707031 180.199219 L 202.707031 202.734375 L 166.789062 202.734375 Z M 166.789062 180.199219 " fill-opacity="1" fill-rule="nonzero"/></g></g><g clip-path="url(#bd5879cb17)"><g clip-path="url(#a4f04cb664)"><path fill="#f9fafb" d="M 236.050781 40.589844 L 270.738281 40.589844 L 270.738281 63.128906 L 236.050781 63.128906 Z M 236.050781 40.589844 " fill-opacity="1" fill-rule="nonzero"/></g></g><g clip-path="url(#f190332d58)"><g clip-path="url(#4821019cf2)"><path fill="#f9fafb" d="M 171.210938 257.808594 L 206.601562 257.808594 L 206.601562 277.378906 L 171.210938 277.378906 Z M 171.210938 257.808594 " fill-opacity="1" fill-rule="nonzero"/></g></g><g clip-path="url(#0794c3c20e)"><g clip-path="url(#b3de62d6fc)"><path fill="#f9fafb" d="M 86.839844 257.808594 L 122.230469 257.808594 L 122.230469 277.378906 L 86.839844 277.378906 Z M 86.839844 257.808594 " fill-opacity="1" fill-rule="nonzero"/></g></g></svg>