<svg xmlns="http://www.w3.org/2000/svg" xmlns:xlink="http://www.w3.org/1999/xlink" width="800" zoomAndPan="magnify" viewBox="0 0 600 374.999991" height="500" preserveAspectRatio="xMidYMid meet" version="1.0"><defs><g/><clipPath id="175a18afd2"><path d="M 406 151 L 450 151 L 450 195 L 406 195 Z M 406 151 " clip-rule="nonzero"/></clipPath><clipPath id="71fb9f8182"><path d="M 413.570312 151.257812 L 449.078125 186.769531 L 441.636719 194.210938 L 406.128906 158.699219 Z M 413.570312 151.257812 " clip-rule="nonzero"/></clipPath><clipPath id="eb46e3aede"><path d="M 406 133 L 518 133 L 518 246 L 406 246 Z M 406 133 " clip-rule="nonzero"/></clipPath><clipPath id="0f2b6508eb"><path d="M 416.5625 133.90625 L 517.460938 234.804688 L 507.027344 245.242188 L 406.125 144.339844 Z M 416.5625 133.90625 " clip-rule="nonzero"/></clipPath><clipPath id="2ae988a53b"><path d="M 406.125 134.765625 L 416.648438 134.765625 L 416.648438 159.015625 L 406.125 159.015625 Z M 406.125 134.765625 " clip-rule="nonzero"/></clipPath><clipPath id="08660b1853"><path d="M 380.957031 106.210938 L 403.167969 106.210938 L 403.167969 128.425781 L 380.957031 128.425781 Z M 380.957031 106.210938 " clip-rule="nonzero"/></clipPath><clipPath id="f3189ef2e4"><path d="M 392.0625 106.210938 C 385.929688 106.210938 380.957031 111.183594 380.957031 117.320312 C 380.957031 123.453125 385.929688 128.425781 392.0625 128.425781 C 398.195312 128.425781 403.167969 123.453125 403.167969 117.320312 C 403.167969 111.183594 398.195312 106.210938 392.0625 106.210938 Z M 392.0625 106.210938 " clip-rule="nonzero"/></clipPath><clipPath id="6ee7589990"><path d="M 392 117 L 417 117 L 417 142 L 392 142 Z M 392 117 " clip-rule="nonzero"/></clipPath><clipPath id="92a359d421"><path d="M 399.503906 117.320312 L 416.652344 134.46875 L 409.210938 141.910156 L 392.0625 124.761719 Z M 399.503906 117.320312 " clip-rule="nonzero"/></clipPath><clipPath id="9d9b356a2a"><path d="M 403.167969 182.238281 L 442.28125 182.238281 L 442.28125 192.761719 L 403.167969 192.761719 Z M 403.167969 182.238281 " clip-rule="nonzero"/></clipPath><clipPath id="bd457403b0"><path d="M 390 172 L 411 172 L 411 193 L 390 193 Z M 390 172 " clip-rule="nonzero"/></clipPath><clipPath id="347a5826e2"><path d="M 397.742188 172.738281 L 410.53125 185.523438 L 403.089844 192.964844 L 390.300781 180.179688 Z M 397.742188 172.738281 " clip-rule="nonzero"/></clipPath><clipPath id="715f72e264"><path d="M 380.957031 161.628906 L 403.167969 161.628906 L 403.167969 183.839844 L 380.957031 183.839844 Z M 380.957031 161.628906 " clip-rule="nonzero"/></clipPath><clipPath id="8bd006ca50"><path d="M 392.0625 161.628906 C 385.929688 161.628906 380.957031 166.601562 380.957031 172.734375 C 380.957031 178.867188 385.929688 183.839844 392.0625 183.839844 C 398.195312 183.839844 403.167969 178.867188 403.167969 172.734375 C 403.167969 166.601562 398.195312 161.628906 392.0625 161.628906 Z M 392.0625 161.628906 " clip-rule="nonzero"/></clipPath><clipPath id="5b03f45a77"><path d="M 422 115 L 518 115 L 518 211 L 422 211 Z M 422 115 " clip-rule="nonzero"/></clipPath><clipPath id="dbdb63b7a9"><path d="M 433.15625 115.394531 L 517.460938 199.699219 L 507.027344 210.136719 L 422.71875 125.828125 Z M 433.15625 115.394531 " clip-rule="nonzero"/></clipPath><clipPath id="d4085a302b"><path d="M 422.722656 135.78125 L 444.9375 135.78125 L 444.9375 157.992188 L 422.722656 157.992188 Z M 422.722656 135.78125 " clip-rule="nonzero"/></clipPath><clipPath id="2c7e24f629"><path d="M 433.832031 135.78125 C 427.695312 135.78125 422.722656 140.753906 422.722656 146.886719 C 422.722656 153.019531 427.695312 157.992188 433.832031 157.992188 C 439.964844 157.992188 444.9375 153.019531 444.9375 146.886719 C 444.9375 140.753906 439.964844 135.78125 433.832031 135.78125 Z M 433.832031 135.78125 " clip-rule="nonzero"/></clipPath><clipPath id="cdf69d4c5e"><path d="M 425 81 L 518 81 L 518 175 L 425 175 Z M 425 81 " clip-rule="nonzero"/></clipPath><clipPath id="c55c6cb255"><path d="M 435.4375 81.992188 L 517.460938 164.015625 L 507.023438 174.453125 L 425 92.429688 Z M 435.4375 81.992188 " clip-rule="nonzero"/></clipPath><clipPath id="03a7c59485"><path d="M 414 89 L 458 89 L 458 133 L 414 133 Z M 414 89 " clip-rule="nonzero"/></clipPath><clipPath id="c0b97dfc63"><path d="M 421.921875 89.238281 L 457.429688 124.746094 L 449.988281 132.1875 L 414.480469 96.679688 Z M 421.921875 89.238281 " clip-rule="nonzero"/></clipPath><clipPath id="c7baeb07ca"><path d="M 414.476562 72.746094 L 425 72.746094 L 425 96.996094 L 414.476562 96.996094 Z M 414.476562 72.746094 " clip-rule="nonzero"/></clipPath><clipPath id="8a4b25938a"><path d="M 400 55 L 426 55 L 426 80 L 400 80 Z M 400 55 " clip-rule="nonzero"/></clipPath><clipPath id="78ce03d1fb"><path d="M 407.855469 55.300781 L 425.003906 72.445312 L 417.5625 79.886719 L 400.414062 62.742188 Z M 407.855469 55.300781 " clip-rule="nonzero"/></clipPath><clipPath id="cbe70aeadd"><path d="M 384.289062 164.960938 L 399.835938 164.960938 L 399.835938 180.507812 L 384.289062 180.507812 Z M 384.289062 164.960938 " clip-rule="nonzero"/></clipPath><clipPath id="1560b2e63a"><path d="M 392.0625 164.960938 C 387.769531 164.960938 384.289062 168.441406 384.289062 172.734375 C 384.289062 177.027344 387.769531 180.507812 392.0625 180.507812 C 396.355469 180.507812 399.835938 177.027344 399.835938 172.734375 C 399.835938 168.441406 396.355469 164.960938 392.0625 164.960938 Z M 392.0625 164.960938 " clip-rule="nonzero"/></clipPath><clipPath id="496a7cea11"><path d="M 426.058594 139.113281 L 441.605469 139.113281 L 441.605469 154.660156 L 426.058594 154.660156 Z M 426.058594 139.113281 " clip-rule="nonzero"/></clipPath><clipPath id="06c0716066"><path d="M 433.832031 139.113281 C 429.539062 139.113281 426.058594 142.59375 426.058594 146.886719 C 426.058594 151.179688 429.539062 154.660156 433.832031 154.660156 C 438.125 154.660156 441.605469 151.179688 441.605469 146.886719 C 441.605469 142.59375 438.125 139.113281 433.832031 139.113281 Z M 433.832031 139.113281 " clip-rule="nonzero"/></clipPath><clipPath id="ae9fd4b058"><path d="M 384.289062 109.546875 L 399.835938 109.546875 L 399.835938 125.089844 L 384.289062 125.089844 Z M 384.289062 109.546875 " clip-rule="nonzero"/></clipPath><clipPath id="4e96ff8a90"><path d="M 392.0625 109.546875 C 387.769531 109.546875 384.289062 113.027344 384.289062 117.320312 C 384.289062 121.613281 387.769531 125.089844 392.0625 125.089844 C 396.355469 125.089844 399.835938 121.613281 399.835938 117.320312 C 399.835938 113.027344 396.355469 109.546875 392.0625 109.546875 Z M 392.0625 109.546875 " clip-rule="nonzero"/></clipPath><clipPath id="061f2064f7"><path d="M 392.0625 47.09375 L 414.277344 47.09375 L 414.277344 69.304688 L 392.0625 69.304688 Z M 392.0625 47.09375 " clip-rule="nonzero"/></clipPath><clipPath id="59df6efcc3"><path d="M 403.167969 47.09375 C 397.035156 47.09375 392.0625 52.066406 392.0625 58.199219 C 392.0625 64.332031 397.035156 69.304688 403.167969 69.304688 C 409.304688 69.304688 414.277344 64.332031 414.277344 58.199219 C 414.277344 52.066406 409.304688 47.09375 403.167969 47.09375 Z M 403.167969 47.09375 " clip-rule="nonzero"/></clipPath><clipPath id="a14542f583"><path d="M 395.394531 50.425781 L 410.941406 50.425781 L 410.941406 65.972656 L 395.394531 65.972656 Z M 395.394531 50.425781 " clip-rule="nonzero"/></clipPath><clipPath id="e3b6122ded"><path d="M 403.167969 50.425781 C 398.875 50.425781 395.394531 53.90625 395.394531 58.199219 C 395.394531 62.492188 398.875 65.972656 403.167969 65.972656 C 407.460938 65.972656 410.941406 62.492188 410.941406 58.199219 C 410.941406 53.90625 407.460938 50.425781 403.167969 50.425781 Z M 403.167969 50.425781 " clip-rule="nonzero"/></clipPath></defs><g fill="#ffffff" fill-opacity="1"><g transform="translate(412.363485, 323.11085)"><g><path d="M 90.65625 -273.140625 L 90.65625 0 L 24.125 0 L 24.125 -273.140625 Z M 90.65625 -273.140625 "/></g></g></g><g clip-path="url(#175a18afd2)"><g clip-path="url(#71fb9f8182)"><path fill="#ffffff" d="M 413.570312 151.257812 L 449.089844 186.78125 L 441.648438 194.222656 L 406.128906 158.699219 Z M 413.570312 151.257812 " fill-opacity="1" fill-rule="nonzero"/></g></g><g clip-path="url(#eb46e3aede)"><g clip-path="url(#0f2b6508eb)"><path fill="#202020" d="M 416.5625 133.90625 L 517.460938 234.804688 L 507.023438 245.242188 L 406.125 144.339844 Z M 416.5625 133.90625 " fill-opacity="1" fill-rule="nonzero"/></g></g><g clip-path="url(#2ae988a53b)"><path fill="#ffffff" d="M 416.648438 134.765625 L 416.648438 159.019531 L 406.125 159.019531 L 406.125 134.765625 Z M 416.648438 134.765625 " fill-opacity="1" fill-rule="nonzero"/></g><g clip-path="url(#08660b1853)"><g clip-path="url(#f3189ef2e4)"><path fill="#ffffff" d="M 380.957031 106.210938 L 403.167969 106.210938 L 403.167969 128.425781 L 380.957031 128.425781 Z M 380.957031 106.210938 " fill-opacity="1" fill-rule="nonzero"/></g></g><g clip-path="url(#6ee7589990)"><g clip-path="url(#92a359d421)"><path fill="#ffffff" d="M 399.503906 117.320312 L 416.652344 134.46875 L 409.210938 141.910156 L 392.0625 124.761719 Z M 399.503906 117.320312 " fill-opacity="1" fill-rule="nonzero"/></g></g><g clip-path="url(#9d9b356a2a)"><path fill="#ffffff" d="M 403.167969 182.238281 L 442.261719 182.238281 L 442.261719 192.761719 L 403.167969 192.761719 Z M 403.167969 182.238281 " fill-opacity="1" fill-rule="nonzero"/></g><g clip-path="url(#bd457403b0)"><g clip-path="url(#347a5826e2)"><path fill="#ffffff" d="M 397.742188 172.738281 L 410.53125 185.527344 L 403.089844 192.96875 L 390.300781 180.179688 Z M 397.742188 172.738281 " fill-opacity="1" fill-rule="nonzero"/></g></g><g clip-path="url(#715f72e264)"><g clip-path="url(#8bd006ca50)"><path fill="#ffffff" d="M 380.957031 161.628906 L 403.167969 161.628906 L 403.167969 183.839844 L 380.957031 183.839844 Z M 380.957031 161.628906 " fill-opacity="1" fill-rule="nonzero"/></g></g><g clip-path="url(#5b03f45a77)"><g clip-path="url(#dbdb63b7a9)"><path fill="#202020" d="M 433.15625 115.394531 L 517.464844 199.699219 L 507.027344 210.136719 L 422.71875 125.828125 Z M 433.15625 115.394531 " fill-opacity="1" fill-rule="nonzero"/></g></g><g clip-path="url(#d4085a302b)"><g clip-path="url(#2c7e24f629)"><path fill="#ffffff" d="M 422.722656 135.78125 L 444.9375 135.78125 L 444.9375 157.992188 L 422.722656 157.992188 Z M 422.722656 135.78125 " fill-opacity="1" fill-rule="nonzero"/></g></g><g clip-path="url(#cdf69d4c5e)"><g clip-path="url(#c55c6cb255)"><path fill="#202020" d="M 435.4375 81.992188 L 517.460938 164.015625 L 507.023438 174.453125 L 425 92.429688 Z M 435.4375 81.992188 " fill-opacity="1" fill-rule="nonzero"/></g></g><g clip-path="url(#03a7c59485)"><g clip-path="url(#c0b97dfc63)"><path fill="#ffffff" d="M 421.921875 89.238281 L 457.441406 124.757812 L 450 132.199219 L 414.480469 96.679688 Z M 421.921875 89.238281 " fill-opacity="1" fill-rule="nonzero"/></g></g><g clip-path="url(#c7baeb07ca)"><path fill="#ffffff" d="M 425 72.746094 L 425 96.996094 L 414.476562 96.996094 L 414.476562 72.746094 Z M 425 72.746094 " fill-opacity="1" fill-rule="nonzero"/></g><g clip-path="url(#8a4b25938a)"><g clip-path="url(#78ce03d1fb)"><path fill="#ffffff" d="M 407.855469 55.300781 L 425.007812 72.449219 L 417.566406 79.890625 L 400.414062 62.742188 Z M 407.855469 55.300781 " fill-opacity="1" fill-rule="nonzero"/></g></g><g clip-path="url(#cbe70aeadd)"><g clip-path="url(#1560b2e63a)"><path fill="#202020" d="M 384.289062 164.960938 L 399.835938 164.960938 L 399.835938 180.507812 L 384.289062 180.507812 Z M 384.289062 164.960938 " fill-opacity="1" fill-rule="nonzero"/></g></g><g clip-path="url(#496a7cea11)"><g clip-path="url(#06c0716066)"><path fill="#202020" d="M 426.058594 139.113281 L 441.605469 139.113281 L 441.605469 154.660156 L 426.058594 154.660156 Z M 426.058594 139.113281 " fill-opacity="1" fill-rule="nonzero"/></g></g><g clip-path="url(#ae9fd4b058)"><g clip-path="url(#4e96ff8a90)"><path fill="#202020" d="M 384.289062 109.546875 L 399.835938 109.546875 L 399.835938 125.089844 L 384.289062 125.089844 Z M 384.289062 109.546875 " fill-opacity="1" fill-rule="nonzero"/></g></g><g clip-path="url(#061f2064f7)"><g clip-path="url(#59df6efcc3)"><path fill="#ffffff" d="M 392.0625 47.09375 L 414.277344 47.09375 L 414.277344 69.304688 L 392.0625 69.304688 Z M 392.0625 47.09375 " fill-opacity="1" fill-rule="nonzero"/></g></g><g clip-path="url(#a14542f583)"><g clip-path="url(#e3b6122ded)"><path fill="#202020" d="M 395.394531 50.425781 L 410.941406 50.425781 L 410.941406 65.972656 L 395.394531 65.972656 Z M 395.394531 50.425781 " fill-opacity="1" fill-rule="nonzero"/></g></g></svg>