<svg xmlns="http://www.w3.org/2000/svg" xmlns:xlink="http://www.w3.org/1999/xlink" width="500" zoomAndPan="magnify" viewBox="0 0 375 599.999999" height="800" preserveAspectRatio="xMidYMid meet" version="1.0"><defs><g/><clipPath id="ec69dcd6b6"><path d="M 77 237 L 152 237 L 152 312 L 77 312 Z M 77 237 " clip-rule="nonzero"/></clipPath><clipPath id="7088edc19e"><path d="M 90.386719 237.371094 L 151.753906 298.734375 L 138.890625 311.59375 L 77.527344 250.230469 Z M 90.386719 237.371094 " clip-rule="nonzero"/></clipPath><clipPath id="aa157fe9d0"><path d="M 77 207 L 270 207 L 270 400 L 77 400 Z M 77 207 " clip-rule="nonzero"/></clipPath><clipPath id="5c8262440a"><path d="M 95.558594 207.378906 L 269.933594 381.753906 L 251.898438 399.789062 L 77.519531 225.414062 Z M 95.558594 207.378906 " clip-rule="nonzero"/></clipPath><clipPath id="e5d18e5d58"><path d="M 77.519531 208.867188 L 95.707031 208.867188 L 95.707031 250.773438 L 77.519531 250.773438 Z M 77.519531 208.867188 " clip-rule="nonzero"/></clipPath><clipPath id="936c8ae045"><path d="M 34.027344 159.519531 L 72.414062 159.519531 L 72.414062 197.90625 L 34.027344 197.90625 Z M 34.027344 159.519531 " clip-rule="nonzero"/></clipPath><clipPath id="7444710e6e"><path d="M 53.222656 159.519531 C 42.621094 159.519531 34.027344 168.113281 34.027344 178.714844 C 34.027344 189.3125 42.621094 197.90625 53.222656 197.90625 C 63.820312 197.90625 72.414062 189.3125 72.414062 178.714844 C 72.414062 168.113281 63.820312 159.519531 53.222656 159.519531 Z M 53.222656 159.519531 " clip-rule="nonzero"/></clipPath><clipPath id="0a1bf0a363"><path d="M 53 178 L 96 178 L 96 222 L 53 222 Z M 53 178 " clip-rule="nonzero"/></clipPath><clipPath id="203f98cf13"><path d="M 66.078125 178.71875 L 95.710938 208.351562 L 82.851562 221.210938 L 53.21875 191.578125 Z M 66.078125 178.71875 " clip-rule="nonzero"/></clipPath><clipPath id="10ac65145b"><path d="M 72.414062 290.90625 L 140 290.90625 L 140 309.09375 L 72.414062 309.09375 Z M 72.414062 290.90625 " clip-rule="nonzero"/></clipPath><clipPath id="4276d35ab0"><path d="M 50 274 L 86 274 L 86 310 L 50 310 Z M 50 274 " clip-rule="nonzero"/></clipPath><clipPath id="e1e70e7089"><path d="M 63.035156 274.488281 L 85.136719 296.585938 L 72.277344 309.445312 L 50.175781 287.347656 Z M 63.035156 274.488281 " clip-rule="nonzero"/></clipPath><clipPath id="4cf3a53677"><path d="M 34.027344 255.289062 L 72.414062 255.289062 L 72.414062 293.675781 L 34.027344 293.675781 Z M 34.027344 255.289062 " clip-rule="nonzero"/></clipPath><clipPath id="094ec4fa01"><path d="M 53.222656 255.289062 C 42.621094 255.289062 34.027344 263.882812 34.027344 274.480469 C 34.027344 285.082031 42.621094 293.675781 53.222656 293.675781 C 63.820312 293.675781 72.414062 285.082031 72.414062 274.480469 C 72.414062 263.882812 63.820312 255.289062 53.222656 255.289062 Z M 53.222656 255.289062 " clip-rule="nonzero"/></clipPath><clipPath id="85c22c1f6c"><path d="M 106 175 L 270 175 L 270 340 L 106 340 Z M 106 175 " clip-rule="nonzero"/></clipPath><clipPath id="001a47cc69"><path d="M 124.238281 175.386719 L 269.933594 321.082031 L 251.898438 339.117188 L 106.203125 193.421875 Z M 124.238281 175.386719 " clip-rule="nonzero"/></clipPath><clipPath id="d2f024daa3"><path d="M 106.210938 210.621094 L 144.597656 210.621094 L 144.597656 249.007812 L 106.210938 249.007812 Z M 106.210938 210.621094 " clip-rule="nonzero"/></clipPath><clipPath id="bfdc6f89b1"><path d="M 125.402344 210.621094 C 114.800781 210.621094 106.210938 219.214844 106.210938 229.816406 C 106.210938 240.414062 114.800781 249.007812 125.402344 249.007812 C 136.003906 249.007812 144.597656 240.414062 144.597656 229.816406 C 144.597656 219.214844 136.003906 210.621094 125.402344 210.621094 Z M 125.402344 210.621094 " clip-rule="nonzero"/></clipPath><clipPath id="fde07a8441"><path d="M 110 117 L 270 117 L 270 278 L 110 278 Z M 110 117 " clip-rule="nonzero"/></clipPath><clipPath id="cf3e723bd6"><path d="M 128.179688 117.664062 L 269.933594 259.417969 L 251.894531 277.453125 L 110.144531 135.699219 Z M 128.179688 117.664062 " clip-rule="nonzero"/></clipPath><clipPath id="51d7370d4b"><path d="M 91 130 L 167 130 L 167 205 L 91 205 Z M 91 130 " clip-rule="nonzero"/></clipPath><clipPath id="85a8c995a0"><path d="M 104.824219 130.1875 L 166.1875 191.550781 L 153.328125 204.410156 L 91.964844 143.046875 Z M 104.824219 130.1875 " clip-rule="nonzero"/></clipPath><clipPath id="e5e49f8e61"><path d="M 91.957031 101.683594 L 110.144531 101.683594 L 110.144531 143.589844 L 91.957031 143.589844 Z M 91.957031 101.683594 " clip-rule="nonzero"/></clipPath><clipPath id="daeadd8f1c"><path d="M 67 71 L 111 71 L 111 115 L 67 115 Z M 67 71 " clip-rule="nonzero"/></clipPath><clipPath id="524d273486"><path d="M 80.515625 71.535156 L 110.148438 101.167969 L 97.289062 114.027344 L 67.65625 84.394531 Z M 80.515625 71.535156 " clip-rule="nonzero"/></clipPath><clipPath id="641048030d"><path d="M 39.789062 261.046875 L 66.652344 261.046875 L 66.652344 287.914062 L 39.789062 287.914062 Z M 39.789062 261.046875 " clip-rule="nonzero"/></clipPath><clipPath id="40ebf5b882"><path d="M 53.222656 261.046875 C 45.800781 261.046875 39.789062 267.0625 39.789062 274.480469 C 39.789062 281.902344 45.800781 287.914062 53.222656 287.914062 C 60.640625 287.914062 66.652344 281.902344 66.652344 274.480469 C 66.652344 267.0625 60.640625 261.046875 53.222656 261.046875 Z M 53.222656 261.046875 " clip-rule="nonzero"/></clipPath><clipPath id="950dbb3dca"><path d="M 111.96875 216.382812 L 138.835938 216.382812 L 138.835938 243.246094 L 111.96875 243.246094 Z M 111.96875 216.382812 " clip-rule="nonzero"/></clipPath><clipPath id="98c265b578"><path d="M 125.402344 216.382812 C 117.984375 216.382812 111.96875 222.394531 111.96875 229.816406 C 111.96875 237.234375 117.984375 243.246094 125.402344 243.246094 C 132.820312 243.246094 138.835938 237.234375 138.835938 229.816406 C 138.835938 222.394531 132.820312 216.382812 125.402344 216.382812 Z M 125.402344 216.382812 " clip-rule="nonzero"/></clipPath><clipPath id="7182374eda"><path d="M 39.789062 165.28125 L 66.652344 165.28125 L 66.652344 192.148438 L 39.789062 192.148438 Z M 39.789062 165.28125 " clip-rule="nonzero"/></clipPath><clipPath id="b53aac8e3d"><path d="M 53.222656 165.28125 C 45.800781 165.28125 39.789062 171.296875 39.789062 178.714844 C 39.789062 186.132812 45.800781 192.148438 53.222656 192.148438 C 60.640625 192.148438 66.652344 186.132812 66.652344 178.714844 C 66.652344 171.296875 60.640625 165.28125 53.222656 165.28125 Z M 53.222656 165.28125 " clip-rule="nonzero"/></clipPath><clipPath id="9b9da84af5"><path d="M 53.222656 57.351562 L 91.609375 57.351562 L 91.609375 95.738281 L 53.222656 95.738281 Z M 53.222656 57.351562 " clip-rule="nonzero"/></clipPath><clipPath id="fc3e7af340"><path d="M 72.414062 57.351562 C 61.8125 57.351562 53.222656 65.945312 53.222656 76.546875 C 53.222656 87.144531 61.8125 95.738281 72.414062 95.738281 C 83.015625 95.738281 91.609375 87.144531 91.609375 76.546875 C 91.609375 65.945312 83.015625 57.351562 72.414062 57.351562 Z M 72.414062 57.351562 " clip-rule="nonzero"/></clipPath><clipPath id="4c7c96b4f1"><path d="M 58.980469 63.113281 L 85.847656 63.113281 L 85.847656 89.980469 L 58.980469 89.980469 Z M 58.980469 63.113281 " clip-rule="nonzero"/></clipPath><clipPath id="f40a90ef69"><path d="M 72.414062 63.113281 C 64.996094 63.113281 58.980469 69.125 58.980469 76.546875 C 58.980469 83.964844 64.996094 89.980469 72.414062 89.980469 C 79.832031 89.980469 85.847656 83.964844 85.847656 76.546875 C 85.847656 69.125 79.832031 63.113281 72.414062 63.113281 Z M 72.414062 63.113281 " clip-rule="nonzero"/></clipPath></defs><g fill="#ffffff" fill-opacity="1"><g transform="translate(88.303593, 534.35974)"><g><path d="M 156.671875 -472.046875 L 156.671875 0 L 41.6875 0 L 41.6875 -472.046875 Z M 156.671875 -472.046875 "/></g></g></g><g clip-path="url(#ec69dcd6b6)"><g clip-path="url(#7088edc19e)"><path fill="#ffffff" d="M 90.386719 237.371094 L 151.773438 298.753906 L 138.914062 311.617188 L 77.527344 250.230469 Z M 90.386719 237.371094 " fill-opacity="1" fill-rule="nonzero"/></g></g><g clip-path="url(#aa157fe9d0)"><g clip-path="url(#5c8262440a)"><path fill="#202020" d="M 95.558594 207.378906 L 269.929688 381.75 L 251.894531 399.785156 L 77.519531 225.414062 Z M 95.558594 207.378906 " fill-opacity="1" fill-rule="nonzero"/></g></g><g clip-path="url(#e5d18e5d58)"><path fill="#ffffff" d="M 95.707031 208.867188 L 95.707031 250.78125 L 77.519531 250.78125 L 77.519531 208.867188 Z M 95.707031 208.867188 " fill-opacity="1" fill-rule="nonzero"/></g><g clip-path="url(#936c8ae045)"><g clip-path="url(#7444710e6e)"><path fill="#ffffff" d="M 34.027344 159.519531 L 72.414062 159.519531 L 72.414062 197.90625 L 34.027344 197.90625 Z M 34.027344 159.519531 " fill-opacity="1" fill-rule="nonzero"/></g></g><g clip-path="url(#0a1bf0a363)"><g clip-path="url(#203f98cf13)"><path fill="#ffffff" d="M 66.078125 178.71875 L 95.714844 208.355469 L 82.855469 221.214844 L 53.21875 191.578125 Z M 66.078125 178.71875 " fill-opacity="1" fill-rule="nonzero"/></g></g><g clip-path="url(#10ac65145b)"><path fill="#ffffff" d="M 72.414062 290.90625 L 139.972656 290.90625 L 139.972656 309.09375 L 72.414062 309.09375 Z M 72.414062 290.90625 " fill-opacity="1" fill-rule="nonzero"/></g><g clip-path="url(#4276d35ab0)"><g clip-path="url(#e1e70e7089)"><path fill="#ffffff" d="M 63.035156 274.488281 L 85.136719 296.589844 L 72.277344 309.449219 L 50.175781 287.347656 Z M 63.035156 274.488281 " fill-opacity="1" fill-rule="nonzero"/></g></g><g clip-path="url(#4cf3a53677)"><g clip-path="url(#094ec4fa01)"><path fill="#ffffff" d="M 34.027344 255.289062 L 72.414062 255.289062 L 72.414062 293.675781 L 34.027344 293.675781 Z M 34.027344 255.289062 " fill-opacity="1" fill-rule="nonzero"/></g></g><g clip-path="url(#85c22c1f6c)"><g clip-path="url(#001a47cc69)"><path fill="#202020" d="M 124.238281 175.386719 L 269.933594 321.082031 L 251.898438 339.121094 L 106.203125 193.421875 Z M 124.238281 175.386719 " fill-opacity="1" fill-rule="nonzero"/></g></g><g clip-path="url(#d2f024daa3)"><g clip-path="url(#bfdc6f89b1)"><path fill="#ffffff" d="M 106.210938 210.621094 L 144.597656 210.621094 L 144.597656 249.007812 L 106.210938 249.007812 Z M 106.210938 210.621094 " fill-opacity="1" fill-rule="nonzero"/></g></g><g clip-path="url(#fde07a8441)"><g clip-path="url(#cf3e723bd6)"><path fill="#202020" d="M 128.179688 117.664062 L 269.929688 259.414062 L 251.894531 277.453125 L 110.144531 135.699219 Z M 128.179688 117.664062 " fill-opacity="1" fill-rule="nonzero"/></g></g><g clip-path="url(#51d7370d4b)"><g clip-path="url(#85a8c995a0)"><path fill="#ffffff" d="M 104.824219 130.1875 L 166.210938 191.570312 L 153.347656 204.429688 L 91.964844 143.046875 Z M 104.824219 130.1875 " fill-opacity="1" fill-rule="nonzero"/></g></g><g clip-path="url(#e5e49f8e61)"><path fill="#ffffff" d="M 110.144531 101.683594 L 110.144531 143.597656 L 91.957031 143.597656 L 91.957031 101.683594 Z M 110.144531 101.683594 " fill-opacity="1" fill-rule="nonzero"/></g><g clip-path="url(#daeadd8f1c)"><g clip-path="url(#524d273486)"><path fill="#ffffff" d="M 80.515625 71.535156 L 110.152344 101.171875 L 97.292969 114.03125 L 67.65625 84.394531 Z M 80.515625 71.535156 " fill-opacity="1" fill-rule="nonzero"/></g></g><g clip-path="url(#641048030d)"><g clip-path="url(#40ebf5b882)"><path fill="#202020" d="M 39.789062 261.046875 L 66.652344 261.046875 L 66.652344 287.914062 L 39.789062 287.914062 Z M 39.789062 261.046875 " fill-opacity="1" fill-rule="nonzero"/></g></g><g clip-path="url(#950dbb3dca)"><g clip-path="url(#98c265b578)"><path fill="#202020" d="M 111.96875 216.382812 L 138.835938 216.382812 L 138.835938 243.246094 L 111.96875 243.246094 Z M 111.96875 216.382812 " fill-opacity="1" fill-rule="nonzero"/></g></g><g clip-path="url(#7182374eda)"><g clip-path="url(#b53aac8e3d)"><path fill="#202020" d="M 39.789062 165.28125 L 66.652344 165.28125 L 66.652344 192.148438 L 39.789062 192.148438 Z M 39.789062 165.28125 " fill-opacity="1" fill-rule="nonzero"/></g></g><g clip-path="url(#9b9da84af5)"><g clip-path="url(#fc3e7af340)"><path fill="#ffffff" d="M 53.222656 57.351562 L 91.609375 57.351562 L 91.609375 95.738281 L 53.222656 95.738281 Z M 53.222656 57.351562 " fill-opacity="1" fill-rule="nonzero"/></g></g><g clip-path="url(#4c7c96b4f1)"><g clip-path="url(#f40a90ef69)"><path fill="#202020" d="M 58.980469 63.113281 L 85.847656 63.113281 L 85.847656 89.980469 L 58.980469 89.980469 Z M 58.980469 63.113281 " fill-opacity="1" fill-rule="nonzero"/></g></g></svg>