<svg xmlns="http://www.w3.org/2000/svg" xmlns:xlink="http://www.w3.org/1999/xlink" width="300" zoomAndPan="magnify" viewBox="0 0 224.87999 225" height="300" preserveAspectRatio="xMidYMid meet" version="1.0"><defs><g/><clipPath id="faafa2a383"><path d="M 63 84 L 97 84 L 97 118 L 63 118 Z M 63 84 " clip-rule="nonzero"/></clipPath><clipPath id="012e43c17a"><path d="M 68.882812 84.410156 L 96.40625 111.933594 L 90.636719 117.699219 L 63.113281 90.175781 Z M 68.882812 84.410156 " clip-rule="nonzero"/></clipPath><clipPath id="f227438b59"><path d="M 63 70 L 150 70 L 150 158 L 63 158 Z M 63 70 " clip-rule="nonzero"/></clipPath><clipPath id="54c0ae9f8c"><path d="M 71.199219 70.957031 L 149.414062 149.167969 L 141.324219 157.257812 L 63.113281 79.046875 Z M 71.199219 70.957031 " clip-rule="nonzero"/></clipPath><clipPath id="dd06dc28b8"><path d="M 63.113281 71.625 L 71.269531 71.625 L 71.269531 90.421875 L 63.113281 90.421875 Z M 63.113281 71.625 " clip-rule="nonzero"/></clipPath><clipPath id="56b51350b0"><path d="M 43.601562 49.492188 L 60.820312 49.492188 L 60.820312 66.707031 L 43.601562 66.707031 Z M 43.601562 49.492188 " clip-rule="nonzero"/></clipPath><clipPath id="089d14803d"><path d="M 52.210938 49.492188 C 47.457031 49.492188 43.601562 53.34375 43.601562 58.101562 C 43.601562 62.855469 47.457031 66.707031 52.210938 66.707031 C 56.964844 66.707031 60.820312 62.855469 60.820312 58.101562 C 60.820312 53.34375 56.964844 49.492188 52.210938 49.492188 Z M 52.210938 49.492188 " clip-rule="nonzero"/></clipPath><clipPath id="de173c1ab1"><path d="M 52 58 L 72 58 L 72 78 L 52 78 Z M 52 58 " clip-rule="nonzero"/></clipPath><clipPath id="076292a1f7"><path d="M 57.980469 58.101562 L 71.269531 71.394531 L 65.503906 77.160156 L 52.210938 63.871094 Z M 57.980469 58.101562 " clip-rule="nonzero"/></clipPath><clipPath id="93783d9135"><path d="M 60.820312 108.421875 L 91.136719 108.421875 L 91.136719 116.578125 L 60.820312 116.578125 Z M 60.820312 108.421875 " clip-rule="nonzero"/></clipPath><clipPath id="8798923d40"><path d="M 50 101 L 67 101 L 67 117 L 50 117 Z M 50 101 " clip-rule="nonzero"/></clipPath><clipPath id="dd1b42af11"><path d="M 56.613281 101.054688 L 66.527344 110.96875 L 60.757812 116.738281 L 50.847656 106.824219 Z M 56.613281 101.054688 " clip-rule="nonzero"/></clipPath><clipPath id="0a62a94195"><path d="M 43.601562 92.445312 L 60.820312 92.445312 L 60.820312 109.664062 L 43.601562 109.664062 Z M 43.601562 92.445312 " clip-rule="nonzero"/></clipPath><clipPath id="1f6b89d762"><path d="M 52.210938 92.445312 C 47.457031 92.445312 43.601562 96.300781 43.601562 101.054688 C 43.601562 105.808594 47.457031 109.664062 52.210938 109.664062 C 56.964844 109.664062 60.820312 105.808594 60.820312 101.054688 C 60.820312 96.300781 56.964844 92.445312 52.210938 92.445312 Z M 52.210938 92.445312 " clip-rule="nonzero"/></clipPath><clipPath id="65f22055ff"><path d="M 75 56 L 150 56 L 150 131 L 75 131 Z M 75 56 " clip-rule="nonzero"/></clipPath><clipPath id="28016cba07"><path d="M 84.066406 56.605469 L 149.414062 121.957031 L 141.324219 130.046875 L 75.976562 64.695312 Z M 84.066406 56.605469 " clip-rule="nonzero"/></clipPath><clipPath id="2714ed229c"><path d="M 75.980469 72.410156 L 93.195312 72.410156 L 93.195312 89.628906 L 75.980469 89.628906 Z M 75.980469 72.410156 " clip-rule="nonzero"/></clipPath><clipPath id="2de0ce76a4"><path d="M 84.585938 72.410156 C 79.832031 72.410156 75.980469 76.265625 75.980469 81.019531 C 75.980469 85.773438 79.832031 89.628906 84.585938 89.628906 C 89.34375 89.628906 93.195312 85.773438 93.195312 81.019531 C 93.195312 76.265625 89.34375 72.410156 84.585938 72.410156 Z M 84.585938 72.410156 " clip-rule="nonzero"/></clipPath><clipPath id="600ce95ff3"><path d="M 77 30 L 150 30 L 150 103 L 77 103 Z M 77 30 " clip-rule="nonzero"/></clipPath><clipPath id="dec0bfd722"><path d="M 85.832031 30.71875 L 149.414062 94.296875 L 141.324219 102.386719 L 77.742188 38.804688 Z M 85.832031 30.71875 " clip-rule="nonzero"/></clipPath><clipPath id="b8697420b8"><path d="M 69 36 L 103 36 L 103 70 L 69 70 Z M 69 36 " clip-rule="nonzero"/></clipPath><clipPath id="c5c209bffd"><path d="M 75.359375 36.335938 L 102.882812 63.859375 L 97.113281 69.625 L 69.589844 42.101562 Z M 75.359375 36.335938 " clip-rule="nonzero"/></clipPath><clipPath id="b6bb740de7"><path d="M 69.585938 23.550781 L 77.746094 23.550781 L 77.746094 42.347656 L 69.585938 42.347656 Z M 69.585938 23.550781 " clip-rule="nonzero"/></clipPath><clipPath id="696117a452"><path d="M 58 10 L 78 10 L 78 30 L 58 30 Z M 58 10 " clip-rule="nonzero"/></clipPath><clipPath id="619bbf2660"><path d="M 64.453125 10.027344 L 77.746094 23.320312 L 71.976562 29.085938 L 58.6875 15.796875 Z M 64.453125 10.027344 " clip-rule="nonzero"/></clipPath><clipPath id="3746efcd11"><path d="M 46.1875 95.03125 L 58.238281 95.03125 L 58.238281 107.078125 L 46.1875 107.078125 Z M 46.1875 95.03125 " clip-rule="nonzero"/></clipPath><clipPath id="1358b3b9e1"><path d="M 52.210938 95.03125 C 48.882812 95.03125 46.1875 97.726562 46.1875 101.054688 C 46.1875 104.382812 48.882812 107.078125 52.210938 107.078125 C 55.539062 107.078125 58.238281 104.382812 58.238281 101.054688 C 58.238281 97.726562 55.539062 95.03125 52.210938 95.03125 Z M 52.210938 95.03125 " clip-rule="nonzero"/></clipPath><clipPath id="f4c435b616"><path d="M 78.5625 74.996094 L 90.613281 74.996094 L 90.613281 87.046875 L 78.5625 87.046875 Z M 78.5625 74.996094 " clip-rule="nonzero"/></clipPath><clipPath id="27c08b67cf"><path d="M 84.585938 74.996094 C 81.261719 74.996094 78.5625 77.691406 78.5625 81.019531 C 78.5625 84.347656 81.261719 87.046875 84.585938 87.046875 C 87.914062 87.046875 90.613281 84.347656 90.613281 81.019531 C 90.613281 77.691406 87.914062 74.996094 84.585938 74.996094 Z M 84.585938 74.996094 " clip-rule="nonzero"/></clipPath><clipPath id="a9ff06c899"><path d="M 46.1875 52.074219 L 58.238281 52.074219 L 58.238281 64.125 L 46.1875 64.125 Z M 46.1875 52.074219 " clip-rule="nonzero"/></clipPath><clipPath id="15faadf5bd"><path d="M 52.210938 52.074219 C 48.882812 52.074219 46.1875 54.773438 46.1875 58.101562 C 46.1875 61.425781 48.882812 64.125 52.210938 64.125 C 55.539062 64.125 58.238281 61.425781 58.238281 58.101562 C 58.238281 54.773438 55.539062 52.074219 52.210938 52.074219 Z M 52.210938 52.074219 " clip-rule="nonzero"/></clipPath><clipPath id="2adabd4a78"><path d="M 52.210938 3.667969 L 69.429688 3.667969 L 69.429688 20.882812 L 52.210938 20.882812 Z M 52.210938 3.667969 " clip-rule="nonzero"/></clipPath><clipPath id="e1a39f15e4"><path d="M 60.820312 3.667969 C 56.066406 3.667969 52.210938 7.519531 52.210938 12.273438 C 52.210938 17.03125 56.066406 20.882812 60.820312 20.882812 C 65.574219 20.882812 69.429688 17.03125 69.429688 12.273438 C 69.429688 7.519531 65.574219 3.667969 60.820312 3.667969 Z M 60.820312 3.667969 " clip-rule="nonzero"/></clipPath><clipPath id="b5bf94d3d0"><path d="M 54.796875 6.25 L 66.847656 6.25 L 66.847656 18.300781 L 54.796875 18.300781 Z M 54.796875 6.25 " clip-rule="nonzero"/></clipPath><clipPath id="ed1370746b"><path d="M 60.820312 6.25 C 57.492188 6.25 54.796875 8.945312 54.796875 12.273438 C 54.796875 15.601562 57.492188 18.300781 60.820312 18.300781 C 64.148438 18.300781 66.847656 15.601562 66.847656 12.273438 C 66.847656 8.945312 64.148438 6.25 60.820312 6.25 Z M 60.820312 6.25 " clip-rule="nonzero"/></clipPath></defs><g fill="#ffffff" fill-opacity="1"><g transform="translate(67.94781, 217.616481)"><g><path d="M 70.265625 -211.71875 L 70.265625 0 L 18.703125 0 L 18.703125 -211.71875 Z M 70.265625 -211.71875 "/></g></g></g><g clip-path="url(#faafa2a383)"><g clip-path="url(#012e43c17a)"><path fill="#ffffff" d="M 68.882812 84.410156 L 96.414062 111.941406 L 90.648438 117.710938 L 63.113281 90.175781 Z M 68.882812 84.410156 " fill-opacity="1" fill-rule="nonzero"/></g></g><g clip-path="url(#f227438b59)"><g clip-path="url(#54c0ae9f8c)"><path fill="#202020" d="M 71.199219 70.957031 L 149.410156 149.167969 L 141.320312 157.257812 L 63.113281 79.046875 Z M 71.199219 70.957031 " fill-opacity="1" fill-rule="nonzero"/></g></g><g clip-path="url(#dd06dc28b8)"><path fill="#ffffff" d="M 71.269531 71.625 L 71.269531 90.421875 L 63.113281 90.421875 L 63.113281 71.625 Z M 71.269531 71.625 " fill-opacity="1" fill-rule="nonzero"/></g><g clip-path="url(#56b51350b0)"><g clip-path="url(#089d14803d)"><path fill="#ffffff" d="M 43.601562 49.492188 L 60.820312 49.492188 L 60.820312 66.707031 L 43.601562 66.707031 Z M 43.601562 49.492188 " fill-opacity="1" fill-rule="nonzero"/></g></g><g clip-path="url(#de173c1ab1)"><g clip-path="url(#076292a1f7)"><path fill="#ffffff" d="M 57.980469 58.101562 L 71.273438 71.394531 L 65.503906 77.164062 L 52.210938 63.871094 Z M 57.980469 58.101562 " fill-opacity="1" fill-rule="nonzero"/></g></g><g clip-path="url(#93783d9135)"><path fill="#ffffff" d="M 60.820312 108.421875 L 91.125 108.421875 L 91.125 116.578125 L 60.820312 116.578125 Z M 60.820312 108.421875 " fill-opacity="1" fill-rule="nonzero"/></g><g clip-path="url(#8798923d40)"><g clip-path="url(#dd1b42af11)"><path fill="#ffffff" d="M 56.613281 101.054688 L 66.527344 110.96875 L 60.761719 116.738281 L 50.847656 106.824219 Z M 56.613281 101.054688 " fill-opacity="1" fill-rule="nonzero"/></g></g><g clip-path="url(#0a62a94195)"><g clip-path="url(#1f6b89d762)"><path fill="#ffffff" d="M 43.601562 92.445312 L 60.820312 92.445312 L 60.820312 109.664062 L 43.601562 109.664062 Z M 43.601562 92.445312 " fill-opacity="1" fill-rule="nonzero"/></g></g><g clip-path="url(#65f22055ff)"><g clip-path="url(#28016cba07)"><path fill="#202020" d="M 84.066406 56.605469 L 149.414062 121.957031 L 141.324219 130.046875 L 75.976562 64.695312 Z M 84.066406 56.605469 " fill-opacity="1" fill-rule="nonzero"/></g></g><g clip-path="url(#2714ed229c)"><g clip-path="url(#2de0ce76a4)"><path fill="#ffffff" d="M 75.980469 72.410156 L 93.195312 72.410156 L 93.195312 89.628906 L 75.980469 89.628906 Z M 75.980469 72.410156 " fill-opacity="1" fill-rule="nonzero"/></g></g><g clip-path="url(#600ce95ff3)"><g clip-path="url(#dec0bfd722)"><path fill="#202020" d="M 85.832031 30.71875 L 149.414062 94.296875 L 141.324219 102.386719 L 77.742188 38.804688 Z M 85.832031 30.71875 " fill-opacity="1" fill-rule="nonzero"/></g></g><g clip-path="url(#b8697420b8)"><g clip-path="url(#c5c209bffd)"><path fill="#ffffff" d="M 75.359375 36.335938 L 102.890625 63.867188 L 97.121094 69.636719 L 69.589844 42.101562 Z M 75.359375 36.335938 " fill-opacity="1" fill-rule="nonzero"/></g></g><g clip-path="url(#b6bb740de7)"><path fill="#ffffff" d="M 77.746094 23.550781 L 77.746094 42.347656 L 69.585938 42.347656 L 69.585938 23.550781 Z M 77.746094 23.550781 " fill-opacity="1" fill-rule="nonzero"/></g><g clip-path="url(#696117a452)"><g clip-path="url(#619bbf2660)"><path fill="#ffffff" d="M 64.453125 10.027344 L 77.746094 23.320312 L 71.980469 29.089844 L 58.6875 15.796875 Z M 64.453125 10.027344 " fill-opacity="1" fill-rule="nonzero"/></g></g><g clip-path="url(#3746efcd11)"><g clip-path="url(#1358b3b9e1)"><path fill="#202020" d="M 46.1875 95.03125 L 58.238281 95.03125 L 58.238281 107.078125 L 46.1875 107.078125 Z M 46.1875 95.03125 " fill-opacity="1" fill-rule="nonzero"/></g></g><g clip-path="url(#f4c435b616)"><g clip-path="url(#27c08b67cf)"><path fill="#202020" d="M 78.5625 74.996094 L 90.613281 74.996094 L 90.613281 87.046875 L 78.5625 87.046875 Z M 78.5625 74.996094 " fill-opacity="1" fill-rule="nonzero"/></g></g><g clip-path="url(#a9ff06c899)"><g clip-path="url(#15faadf5bd)"><path fill="#202020" d="M 46.1875 52.074219 L 58.238281 52.074219 L 58.238281 64.125 L 46.1875 64.125 Z M 46.1875 52.074219 " fill-opacity="1" fill-rule="nonzero"/></g></g><g clip-path="url(#2adabd4a78)"><g clip-path="url(#e1a39f15e4)"><path fill="#ffffff" d="M 52.210938 3.667969 L 69.429688 3.667969 L 69.429688 20.882812 L 52.210938 20.882812 Z M 52.210938 3.667969 " fill-opacity="1" fill-rule="nonzero"/></g></g><g clip-path="url(#b5bf94d3d0)"><g clip-path="url(#ed1370746b)"><path fill="#202020" d="M 54.796875 6.25 L 66.847656 6.25 L 66.847656 18.300781 L 54.796875 18.300781 Z M 54.796875 6.25 " fill-opacity="1" fill-rule="nonzero"/></g></g></svg>