<svg xmlns="http://www.w3.org/2000/svg" xmlns:xlink="http://www.w3.org/1999/xlink" width="500" zoomAndPan="magnify" viewBox="0 0 375 374.999991" height="500" preserveAspectRatio="xMidYMid meet" version="1.0"><defs><g/><clipPath id="0b6e245722"><path d="M 112 145 L 164 145 L 164 196 L 112 196 Z M 112 145 " clip-rule="nonzero"/></clipPath><clipPath id="93ee7e106c"><path d="M 121.597656 145.003906 L 163.238281 186.640625 L 154.511719 195.367188 L 112.871094 153.730469 Z M 121.597656 145.003906 " clip-rule="nonzero"/></clipPath><clipPath id="8787483437"><path d="M 112 124 L 252 124 L 252 264 L 112 264 Z M 112 124 " clip-rule="nonzero"/></clipPath><clipPath id="4a16c080d6"><path d="M 125.113281 124.652344 L 251.386719 250.925781 L 239.148438 263.164062 L 112.875 136.890625 Z M 125.113281 124.652344 " clip-rule="nonzero"/></clipPath><clipPath id="3fb326828f"><path d="M 112.871094 125.652344 L 125.210938 125.652344 L 125.210938 154.089844 L 112.871094 154.089844 Z M 112.871094 125.652344 " clip-rule="nonzero"/></clipPath><clipPath id="5b942168a7"><path d="M 83.359375 92.175781 L 109.40625 92.175781 L 109.40625 118.222656 L 83.359375 118.222656 Z M 83.359375 92.175781 " clip-rule="nonzero"/></clipPath><clipPath id="d7063aca63"><path d="M 96.382812 92.175781 C 89.191406 92.175781 83.359375 98.007812 83.359375 105.199219 C 83.359375 112.394531 89.191406 118.222656 96.382812 118.222656 C 103.578125 118.222656 109.40625 112.394531 109.40625 105.199219 C 109.40625 98.007812 103.578125 92.175781 96.382812 92.175781 Z M 96.382812 92.175781 " clip-rule="nonzero"/></clipPath><clipPath id="fc2cab9eda"><path d="M 96 105 L 126 105 L 126 135 L 96 135 Z M 96 105 " clip-rule="nonzero"/></clipPath><clipPath id="ede8b506aa"><path d="M 105.105469 105.199219 L 125.214844 125.308594 L 116.488281 134.035156 L 96.378906 113.925781 Z M 105.105469 105.199219 " clip-rule="nonzero"/></clipPath><clipPath id="33aefec6ba"><path d="M 109.40625 181.328125 L 155.269531 181.328125 L 155.269531 193.671875 L 109.40625 193.671875 Z M 109.40625 181.328125 " clip-rule="nonzero"/></clipPath><clipPath id="158c00fe6a"><path d="M 94 170 L 119 170 L 119 194 L 94 194 Z M 94 170 " clip-rule="nonzero"/></clipPath><clipPath id="a6ee920811"><path d="M 103.039062 170.1875 L 118.035156 185.183594 L 109.308594 193.910156 L 94.3125 178.914062 Z M 103.039062 170.1875 " clip-rule="nonzero"/></clipPath><clipPath id="6c3616b3ef"><path d="M 83.359375 157.160156 L 109.40625 157.160156 L 109.40625 183.207031 L 83.359375 183.207031 Z M 83.359375 157.160156 " clip-rule="nonzero"/></clipPath><clipPath id="0a94201f97"><path d="M 96.382812 157.160156 C 89.191406 157.160156 83.359375 162.992188 83.359375 170.183594 C 83.359375 177.378906 89.191406 183.207031 96.382812 183.207031 C 103.578125 183.207031 109.40625 177.378906 109.40625 170.183594 C 109.40625 162.992188 103.578125 157.160156 96.382812 157.160156 Z M 96.382812 157.160156 " clip-rule="nonzero"/></clipPath><clipPath id="6a0aa6d43a"><path d="M 132 102 L 271 102 L 271 242 L 132 242 Z M 132 102 " clip-rule="nonzero"/></clipPath><clipPath id="bbca6baf09"><path d="M 144.574219 102.941406 L 270.851562 229.21875 L 258.613281 241.457031 L 132.335938 115.179688 Z M 144.574219 102.941406 " clip-rule="nonzero"/></clipPath><clipPath id="1f4aa8af86"><path d="M 132.339844 126.851562 L 158.386719 126.851562 L 158.386719 152.898438 L 132.339844 152.898438 Z M 132.339844 126.851562 " clip-rule="nonzero"/></clipPath><clipPath id="390c3da4c3"><path d="M 145.363281 126.851562 C 138.171875 126.851562 132.339844 132.683594 132.339844 139.875 C 132.339844 147.066406 138.171875 152.898438 145.363281 152.898438 C 152.554688 152.898438 158.386719 147.066406 158.386719 139.875 C 158.386719 132.683594 152.554688 126.851562 145.363281 126.851562 Z M 145.363281 126.851562 " clip-rule="nonzero"/></clipPath><clipPath id="a89a3f7020"><path d="M 135 63 L 274 63 L 274 203 L 135 203 Z M 135 63 " clip-rule="nonzero"/></clipPath><clipPath id="f5154ae1d9"><path d="M 147.25 63.769531 L 273.523438 190.046875 L 261.285156 202.285156 L 135.011719 76.011719 Z M 147.25 63.769531 " clip-rule="nonzero"/></clipPath><clipPath id="99ea0188ea"><path d="M 122 72 L 174 72 L 174 123 L 122 123 Z M 122 72 " clip-rule="nonzero"/></clipPath><clipPath id="040e34e7a8"><path d="M 131.394531 72.273438 L 173.035156 113.910156 L 164.308594 122.636719 L 122.667969 80.996094 Z M 131.394531 72.273438 " clip-rule="nonzero"/></clipPath><clipPath id="83e5e0801a"><path d="M 122.664062 52.921875 L 135.007812 52.921875 L 135.007812 81.359375 L 122.664062 81.359375 Z M 122.664062 52.921875 " clip-rule="nonzero"/></clipPath><clipPath id="10bd37be0a"><path d="M 106 32 L 136 32 L 136 62 L 106 62 Z M 106 32 " clip-rule="nonzero"/></clipPath><clipPath id="ddae5ec4bf"><path d="M 114.902344 32.46875 L 135.007812 52.578125 L 126.285156 61.304688 L 106.175781 41.195312 Z M 114.902344 32.46875 " clip-rule="nonzero"/></clipPath><clipPath id="2df92c05f2"><path d="M 87.269531 161.070312 L 105.5 161.070312 L 105.5 179.300781 L 87.269531 179.300781 Z M 87.269531 161.070312 " clip-rule="nonzero"/></clipPath><clipPath id="0d266b817e"><path d="M 96.382812 161.070312 C 91.347656 161.070312 87.269531 165.148438 87.269531 170.183594 C 87.269531 175.21875 91.347656 179.300781 96.382812 179.300781 C 101.417969 179.300781 105.5 175.21875 105.5 170.183594 C 105.5 165.148438 101.417969 161.070312 96.382812 161.070312 Z M 96.382812 161.070312 " clip-rule="nonzero"/></clipPath><clipPath id="518d98bb18"><path d="M 136.246094 130.757812 L 154.476562 130.757812 L 154.476562 148.988281 L 136.246094 148.988281 Z M 136.246094 130.757812 " clip-rule="nonzero"/></clipPath><clipPath id="d1c3f476bd"><path d="M 145.363281 130.757812 C 140.328125 130.757812 136.246094 134.839844 136.246094 139.875 C 136.246094 144.910156 140.328125 148.988281 145.363281 148.988281 C 150.398438 148.988281 154.476562 144.910156 154.476562 139.875 C 154.476562 134.839844 150.398438 130.757812 145.363281 130.757812 Z M 145.363281 130.757812 " clip-rule="nonzero"/></clipPath><clipPath id="da14a4b683"><path d="M 87.269531 96.085938 L 105.5 96.085938 L 105.5 114.316406 L 87.269531 114.316406 Z M 87.269531 96.085938 " clip-rule="nonzero"/></clipPath><clipPath id="f9c8e938f7"><path d="M 96.382812 96.085938 C 91.347656 96.085938 87.269531 100.164062 87.269531 105.199219 C 87.269531 110.234375 91.347656 114.316406 96.382812 114.316406 C 101.417969 114.316406 105.5 110.234375 105.5 105.199219 C 105.5 100.164062 101.417969 96.085938 96.382812 96.085938 Z M 96.382812 96.085938 " clip-rule="nonzero"/></clipPath><clipPath id="6bfee257f5"><path d="M 96.382812 22.847656 L 122.429688 22.847656 L 122.429688 48.894531 L 96.382812 48.894531 Z M 96.382812 22.847656 " clip-rule="nonzero"/></clipPath><clipPath id="f178dae35a"><path d="M 109.40625 22.847656 C 102.214844 22.847656 96.382812 28.679688 96.382812 35.871094 C 96.382812 43.066406 102.214844 48.894531 109.40625 48.894531 C 116.601562 48.894531 122.429688 43.066406 122.429688 35.871094 C 122.429688 28.679688 116.601562 22.847656 109.40625 22.847656 Z M 109.40625 22.847656 " clip-rule="nonzero"/></clipPath><clipPath id="8fad58f35a"><path d="M 100.292969 26.757812 L 118.523438 26.757812 L 118.523438 44.988281 L 100.292969 44.988281 Z M 100.292969 26.757812 " clip-rule="nonzero"/></clipPath><clipPath id="66cc73a796"><path d="M 109.40625 26.757812 C 104.371094 26.757812 100.292969 30.839844 100.292969 35.871094 C 100.292969 40.90625 104.371094 44.988281 109.40625 44.988281 C 114.441406 44.988281 118.523438 40.90625 118.523438 35.871094 C 118.523438 30.839844 114.441406 26.757812 109.40625 26.757812 Z M 109.40625 26.757812 " clip-rule="nonzero"/></clipPath></defs><g fill="#ffffff" fill-opacity="1"><g transform="translate(120.189089, 346.527622)"><g><path d="M 106.3125 -320.3125 L 106.3125 0 L 28.296875 0 L 28.296875 -320.3125 Z M 106.3125 -320.3125 "/></g></g></g><g clip-path="url(#0b6e245722)"><g clip-path="url(#93ee7e106c)"><path fill="#ffffff" d="M 121.597656 145.003906 L 163.253906 186.65625 L 154.527344 195.382812 L 112.871094 153.730469 Z M 121.597656 145.003906 " fill-opacity="1" fill-rule="nonzero"/></g></g><g clip-path="url(#8787483437)"><g clip-path="url(#4a16c080d6)"><path fill="#0b0c10" d="M 125.113281 124.652344 L 251.371094 250.910156 L 239.132812 263.148438 L 112.875 136.890625 Z M 125.113281 124.652344 " fill-opacity="1" fill-rule="nonzero"/></g></g><g clip-path="url(#3fb326828f)"><path fill="#ffffff" d="M 125.210938 125.652344 L 125.210938 154.09375 L 112.871094 154.09375 L 112.871094 125.652344 Z M 125.210938 125.652344 " fill-opacity="1" fill-rule="nonzero"/></g><g clip-path="url(#5b942168a7)"><g clip-path="url(#d7063aca63)"><path fill="#ffffff" d="M 83.359375 92.175781 L 109.40625 92.175781 L 109.40625 118.222656 L 83.359375 118.222656 Z M 83.359375 92.175781 " fill-opacity="1" fill-rule="nonzero"/></g></g><g clip-path="url(#fc2cab9eda)"><g clip-path="url(#ede8b506aa)"><path fill="#ffffff" d="M 105.105469 105.199219 L 125.214844 125.3125 L 116.488281 134.035156 L 96.378906 113.925781 Z M 105.105469 105.199219 " fill-opacity="1" fill-rule="nonzero"/></g></g><g clip-path="url(#33aefec6ba)"><path fill="#ffffff" d="M 109.40625 181.328125 L 155.25 181.328125 L 155.25 193.671875 L 109.40625 193.671875 Z M 109.40625 181.328125 " fill-opacity="1" fill-rule="nonzero"/></g><g clip-path="url(#158c00fe6a)"><g clip-path="url(#a6ee920811)"><path fill="#ffffff" d="M 103.039062 170.1875 L 118.039062 185.183594 L 109.3125 193.910156 L 94.3125 178.914062 Z M 103.039062 170.1875 " fill-opacity="1" fill-rule="nonzero"/></g></g><g clip-path="url(#6c3616b3ef)"><g clip-path="url(#0a94201f97)"><path fill="#ffffff" d="M 83.359375 157.160156 L 109.40625 157.160156 L 109.40625 183.207031 L 83.359375 183.207031 Z M 83.359375 157.160156 " fill-opacity="1" fill-rule="nonzero"/></g></g><g clip-path="url(#6a0aa6d43a)"><g clip-path="url(#bbca6baf09)"><path fill="#0b0c10" d="M 144.574219 102.941406 L 270.832031 229.199219 L 258.59375 241.4375 L 132.335938 115.179688 Z M 144.574219 102.941406 " fill-opacity="1" fill-rule="nonzero"/></g></g><g clip-path="url(#1f4aa8af86)"><g clip-path="url(#390c3da4c3)"><path fill="#ffffff" d="M 132.339844 126.851562 L 158.386719 126.851562 L 158.386719 152.898438 L 132.339844 152.898438 Z M 132.339844 126.851562 " fill-opacity="1" fill-rule="nonzero"/></g></g><g clip-path="url(#a89a3f7020)"><g clip-path="url(#f5154ae1d9)"><path fill="#0b0c10" d="M 147.25 63.769531 L 273.507812 190.03125 L 261.269531 202.269531 L 135.011719 76.011719 Z M 147.25 63.769531 " fill-opacity="1" fill-rule="nonzero"/></g></g><g clip-path="url(#99ea0188ea)"><g clip-path="url(#040e34e7a8)"><path fill="#ffffff" d="M 131.394531 72.273438 L 173.046875 113.925781 L 164.324219 122.652344 L 122.667969 80.996094 Z M 131.394531 72.273438 " fill-opacity="1" fill-rule="nonzero"/></g></g><g clip-path="url(#83e5e0801a)"><path fill="#ffffff" d="M 135.007812 52.921875 L 135.007812 81.363281 L 122.664062 81.363281 L 122.664062 52.921875 Z M 135.007812 52.921875 " fill-opacity="1" fill-rule="nonzero"/></g><g clip-path="url(#10bd37be0a)"><g clip-path="url(#ddae5ec4bf)"><path fill="#ffffff" d="M 114.902344 32.46875 L 135.011719 52.578125 L 126.285156 61.304688 L 106.175781 41.195312 Z M 114.902344 32.46875 " fill-opacity="1" fill-rule="nonzero"/></g></g><g clip-path="url(#2df92c05f2)"><g clip-path="url(#0d266b817e)"><path fill="#0b0c10" d="M 87.269531 161.070312 L 105.5 161.070312 L 105.5 179.300781 L 87.269531 179.300781 Z M 87.269531 161.070312 " fill-opacity="1" fill-rule="nonzero"/></g></g><g clip-path="url(#518d98bb18)"><g clip-path="url(#d1c3f476bd)"><path fill="#000000" d="M 136.246094 130.757812 L 154.476562 130.757812 L 154.476562 148.988281 L 136.246094 148.988281 Z M 136.246094 130.757812 " fill-opacity="1" fill-rule="nonzero"/></g></g><g clip-path="url(#da14a4b683)"><g clip-path="url(#f9c8e938f7)"><path fill="#0b0c10" d="M 87.269531 96.085938 L 105.5 96.085938 L 105.5 114.316406 L 87.269531 114.316406 Z M 87.269531 96.085938 " fill-opacity="1" fill-rule="nonzero"/></g></g><g clip-path="url(#6bfee257f5)"><g clip-path="url(#f178dae35a)"><path fill="#ffffff" d="M 96.382812 22.847656 L 122.429688 22.847656 L 122.429688 48.894531 L 96.382812 48.894531 Z M 96.382812 22.847656 " fill-opacity="1" fill-rule="nonzero"/></g></g><g clip-path="url(#8fad58f35a)"><g clip-path="url(#66cc73a796)"><path fill="#0b0c10" d="M 100.292969 26.757812 L 118.523438 26.757812 L 118.523438 44.988281 L 100.292969 44.988281 Z M 100.292969 26.757812 " fill-opacity="1" fill-rule="nonzero"/></g></g></svg>