<svg xmlns="http://www.w3.org/2000/svg" xmlns:xlink="http://www.w3.org/1999/xlink" width="500" zoomAndPan="magnify" viewBox="0 0 375 374.999991" height="500" preserveAspectRatio="xMidYMid meet" version="1.0"><defs><g/><clipPath id="5a555c6f65"><path d="M 112 145 L 164 145 L 164 196 L 112 196 Z M 112 145 " clip-rule="nonzero"/></clipPath><clipPath id="3d24c158ec"><path d="M 121.601562 145 L 163.242188 186.640625 L 154.515625 195.367188 L 112.875 153.726562 Z M 121.601562 145 " clip-rule="nonzero"/></clipPath><clipPath id="087dd909c4"><path d="M 112 124 L 244 124 L 244 256 L 112 256 Z M 112 124 " clip-rule="nonzero"/></clipPath><clipPath id="2d6ed357de"><path d="M 125.109375 124.648438 L 243.4375 242.976562 L 231.199219 255.214844 L 112.871094 136.886719 Z M 125.109375 124.648438 " clip-rule="nonzero"/></clipPath><clipPath id="2ef4a1f659"><path d="M 112.871094 125.660156 L 125.214844 125.660156 L 125.214844 154.097656 L 112.871094 154.097656 Z M 112.871094 125.660156 " clip-rule="nonzero"/></clipPath><clipPath id="7e8988bf87"><path d="M 83.359375 92.175781 L 109.40625 92.175781 L 109.40625 118.222656 L 83.359375 118.222656 Z M 83.359375 92.175781 " clip-rule="nonzero"/></clipPath><clipPath id="9cccb97120"><path d="M 96.382812 92.175781 C 89.191406 92.175781 83.359375 98.007812 83.359375 105.199219 C 83.359375 112.394531 89.191406 118.222656 96.382812 118.222656 C 103.578125 118.222656 109.40625 112.394531 109.40625 105.199219 C 109.40625 98.007812 103.578125 92.175781 96.382812 92.175781 Z M 96.382812 92.175781 " clip-rule="nonzero"/></clipPath><clipPath id="7bffc62d0f"><path d="M 96 105 L 126 105 L 126 135 L 96 135 Z M 96 105 " clip-rule="nonzero"/></clipPath><clipPath id="54e2b4f4e1"><path d="M 105.109375 105.203125 L 125.214844 125.3125 L 116.488281 134.035156 L 96.382812 113.929688 Z M 105.109375 105.203125 " clip-rule="nonzero"/></clipPath><clipPath id="a7f7fd62d6"><path d="M 109.40625 181.328125 L 155.269531 181.328125 L 155.269531 193.671875 L 109.40625 193.671875 Z M 109.40625 181.328125 " clip-rule="nonzero"/></clipPath><clipPath id="2b0b0ed9d3"><path d="M 94 170 L 119 170 L 119 194 L 94 194 Z M 94 170 " clip-rule="nonzero"/></clipPath><clipPath id="9b7faffc5d"><path d="M 103.042969 170.1875 L 118.039062 185.183594 L 109.3125 193.910156 L 94.316406 178.914062 Z M 103.042969 170.1875 " clip-rule="nonzero"/></clipPath><clipPath id="bb2940a479"><path d="M 83.359375 157.160156 L 109.40625 157.160156 L 109.40625 183.207031 L 83.359375 183.207031 Z M 83.359375 157.160156 " clip-rule="nonzero"/></clipPath><clipPath id="bd6c1196c2"><path d="M 96.382812 157.160156 C 89.191406 157.160156 83.359375 162.992188 83.359375 170.183594 C 83.359375 177.378906 89.191406 183.207031 96.382812 183.207031 C 103.578125 183.207031 109.40625 177.378906 109.40625 170.183594 C 109.40625 162.992188 103.578125 157.160156 96.382812 157.160156 Z M 96.382812 157.160156 " clip-rule="nonzero"/></clipPath><clipPath id="c23abde1c0"><path d="M 132 102 L 244 102 L 244 215 L 132 215 Z M 132 102 " clip-rule="nonzero"/></clipPath><clipPath id="e00fa94ac4"><path d="M 144.574219 102.941406 L 243.4375 201.804688 L 231.195312 214.042969 L 132.332031 115.179688 Z M 144.574219 102.941406 " clip-rule="nonzero"/></clipPath><clipPath id="1286a876e4"><path d="M 132.339844 126.851562 L 158.386719 126.851562 L 158.386719 152.898438 L 132.339844 152.898438 Z M 132.339844 126.851562 " clip-rule="nonzero"/></clipPath><clipPath id="4ebb3efb45"><path d="M 145.363281 126.851562 C 138.171875 126.851562 132.339844 132.683594 132.339844 139.875 C 132.339844 147.066406 138.171875 152.898438 145.363281 152.898438 C 152.554688 152.898438 158.386719 147.066406 158.386719 139.875 C 158.386719 132.683594 152.554688 126.851562 145.363281 126.851562 Z M 145.363281 126.851562 " clip-rule="nonzero"/></clipPath><clipPath id="1afd80cc59"><path d="M 135 63 L 244 63 L 244 173 L 135 173 Z M 135 63 " clip-rule="nonzero"/></clipPath><clipPath id="1b27f1ccb0"><path d="M 147.246094 63.773438 L 243.433594 159.960938 L 231.195312 172.199219 L 135.007812 76.011719 Z M 147.246094 63.773438 " clip-rule="nonzero"/></clipPath><clipPath id="44437494f7"><path d="M 122 72 L 174 72 L 174 123 L 122 123 Z M 122 72 " clip-rule="nonzero"/></clipPath><clipPath id="e10e133348"><path d="M 131.398438 72.269531 L 173.039062 113.910156 L 164.3125 122.636719 L 122.671875 80.996094 Z M 131.398438 72.269531 " clip-rule="nonzero"/></clipPath><clipPath id="35dfce5e8d"><path d="M 122.667969 52.929688 L 135.007812 52.929688 L 135.007812 81.367188 L 122.667969 81.367188 Z M 122.667969 52.929688 " clip-rule="nonzero"/></clipPath><clipPath id="dddcd784e0"><path d="M 106 32 L 136 32 L 136 62 L 106 62 Z M 106 32 " clip-rule="nonzero"/></clipPath><clipPath id="9896768b7c"><path d="M 114.902344 32.472656 L 135.011719 52.578125 L 126.285156 61.304688 L 106.179688 41.199219 Z M 114.902344 32.472656 " clip-rule="nonzero"/></clipPath><clipPath id="ef15c9dd2c"><path d="M 87.269531 161.070312 L 105.5 161.070312 L 105.5 179.300781 L 87.269531 179.300781 Z M 87.269531 161.070312 " clip-rule="nonzero"/></clipPath><clipPath id="3b79033d26"><path d="M 96.382812 161.070312 C 91.347656 161.070312 87.269531 165.148438 87.269531 170.183594 C 87.269531 175.21875 91.347656 179.300781 96.382812 179.300781 C 101.417969 179.300781 105.5 175.21875 105.5 170.183594 C 105.5 165.148438 101.417969 161.070312 96.382812 161.070312 Z M 96.382812 161.070312 " clip-rule="nonzero"/></clipPath><clipPath id="457fe57ad0"><path d="M 136.246094 130.757812 L 154.476562 130.757812 L 154.476562 148.988281 L 136.246094 148.988281 Z M 136.246094 130.757812 " clip-rule="nonzero"/></clipPath><clipPath id="41d1b06bf2"><path d="M 145.363281 130.757812 C 140.328125 130.757812 136.246094 134.839844 136.246094 139.875 C 136.246094 144.910156 140.328125 148.988281 145.363281 148.988281 C 150.398438 148.988281 154.476562 144.910156 154.476562 139.875 C 154.476562 134.839844 150.398438 130.757812 145.363281 130.757812 Z M 145.363281 130.757812 " clip-rule="nonzero"/></clipPath><clipPath id="7c8035061a"><path d="M 87.269531 96.085938 L 105.5 96.085938 L 105.5 114.316406 L 87.269531 114.316406 Z M 87.269531 96.085938 " clip-rule="nonzero"/></clipPath><clipPath id="9a0391b11d"><path d="M 96.382812 96.085938 C 91.347656 96.085938 87.269531 100.164062 87.269531 105.199219 C 87.269531 110.234375 91.347656 114.316406 96.382812 114.316406 C 101.417969 114.316406 105.5 110.234375 105.5 105.199219 C 105.5 100.164062 101.417969 96.085938 96.382812 96.085938 Z M 96.382812 96.085938 " clip-rule="nonzero"/></clipPath><clipPath id="cf6c1bd72c"><path d="M 96.382812 22.847656 L 122.429688 22.847656 L 122.429688 48.894531 L 96.382812 48.894531 Z M 96.382812 22.847656 " clip-rule="nonzero"/></clipPath><clipPath id="726612cb55"><path d="M 109.40625 22.847656 C 102.214844 22.847656 96.382812 28.679688 96.382812 35.871094 C 96.382812 43.066406 102.214844 48.894531 109.40625 48.894531 C 116.601562 48.894531 122.429688 43.066406 122.429688 35.871094 C 122.429688 28.679688 116.601562 22.847656 109.40625 22.847656 Z M 109.40625 22.847656 " clip-rule="nonzero"/></clipPath><clipPath id="16849d2766"><path d="M 100.292969 26.757812 L 118.523438 26.757812 L 118.523438 44.988281 L 100.292969 44.988281 Z M 100.292969 26.757812 " clip-rule="nonzero"/></clipPath><clipPath id="8388339c67"><path d="M 109.40625 26.757812 C 104.371094 26.757812 100.292969 30.839844 100.292969 35.871094 C 100.292969 40.90625 104.371094 44.988281 109.40625 44.988281 C 114.441406 44.988281 118.523438 40.90625 118.523438 35.871094 C 118.523438 30.839844 114.441406 26.757812 109.40625 26.757812 Z M 109.40625 26.757812 " clip-rule="nonzero"/></clipPath></defs><g fill="#ffffff" fill-opacity="1"><g transform="translate(120.189089, 346.527622)"><g><path d="M 106.3125 -320.3125 L 106.3125 0 L 28.296875 0 L 28.296875 -320.3125 Z M 106.3125 -320.3125 "/></g></g></g><g clip-path="url(#5a555c6f65)"><g clip-path="url(#3d24c158ec)"><path fill="#ffffff" d="M 121.601562 145 L 163.257812 186.65625 L 154.53125 195.382812 L 112.875 153.726562 Z M 121.601562 145 " fill-opacity="1" fill-rule="nonzero"/></g></g><g clip-path="url(#087dd909c4)"><g clip-path="url(#2d6ed357de)"><path fill="#202020" d="M 125.109375 124.648438 L 243.433594 242.972656 L 231.195312 255.210938 L 112.871094 136.886719 Z M 125.109375 124.648438 " fill-opacity="1" fill-rule="nonzero"/></g></g><g clip-path="url(#2ef4a1f659)"><path fill="#ffffff" d="M 125.214844 125.660156 L 125.214844 154.101562 L 112.871094 154.101562 L 112.871094 125.660156 Z M 125.214844 125.660156 " fill-opacity="1" fill-rule="nonzero"/></g><g clip-path="url(#7e8988bf87)"><g clip-path="url(#9cccb97120)"><path fill="#ffffff" d="M 83.359375 92.175781 L 109.40625 92.175781 L 109.40625 118.222656 L 83.359375 118.222656 Z M 83.359375 92.175781 " fill-opacity="1" fill-rule="nonzero"/></g></g><g clip-path="url(#7bffc62d0f)"><g clip-path="url(#54e2b4f4e1)"><path fill="#ffffff" d="M 105.109375 105.203125 L 125.21875 125.3125 L 116.492188 134.039062 L 96.382812 113.929688 Z M 105.109375 105.203125 " fill-opacity="1" fill-rule="nonzero"/></g></g><g clip-path="url(#a7f7fd62d6)"><path fill="#ffffff" d="M 109.40625 181.328125 L 155.25 181.328125 L 155.25 193.671875 L 109.40625 193.671875 Z M 109.40625 181.328125 " fill-opacity="1" fill-rule="nonzero"/></g><g clip-path="url(#2b0b0ed9d3)"><g clip-path="url(#9b7faffc5d)"><path fill="#ffffff" d="M 103.042969 170.1875 L 118.039062 185.1875 L 109.316406 193.910156 L 94.316406 178.914062 Z M 103.042969 170.1875 " fill-opacity="1" fill-rule="nonzero"/></g></g><g clip-path="url(#bb2940a479)"><g clip-path="url(#bd6c1196c2)"><path fill="#ffffff" d="M 83.359375 157.160156 L 109.40625 157.160156 L 109.40625 183.207031 L 83.359375 183.207031 Z M 83.359375 157.160156 " fill-opacity="1" fill-rule="nonzero"/></g></g><g clip-path="url(#c23abde1c0)"><g clip-path="url(#e00fa94ac4)"><path fill="#202020" d="M 144.574219 102.941406 L 243.4375 201.804688 L 231.199219 214.046875 L 132.332031 115.179688 Z M 144.574219 102.941406 " fill-opacity="1" fill-rule="nonzero"/></g></g><g clip-path="url(#1286a876e4)"><g clip-path="url(#4ebb3efb45)"><path fill="#ffffff" d="M 132.339844 126.851562 L 158.386719 126.851562 L 158.386719 152.898438 L 132.339844 152.898438 Z M 132.339844 126.851562 " fill-opacity="1" fill-rule="nonzero"/></g></g><g clip-path="url(#1afd80cc59)"><g clip-path="url(#1b27f1ccb0)"><path fill="#202020" d="M 147.246094 63.773438 L 243.433594 159.960938 L 231.195312 172.199219 L 135.007812 76.011719 Z M 147.246094 63.773438 " fill-opacity="1" fill-rule="nonzero"/></g></g><g clip-path="url(#44437494f7)"><g clip-path="url(#e10e133348)"><path fill="#ffffff" d="M 131.398438 72.269531 L 173.054688 113.925781 L 164.328125 122.652344 L 122.671875 80.996094 Z M 131.398438 72.269531 " fill-opacity="1" fill-rule="nonzero"/></g></g><g clip-path="url(#35dfce5e8d)"><path fill="#ffffff" d="M 135.007812 52.929688 L 135.007812 81.371094 L 122.667969 81.371094 L 122.667969 52.929688 Z M 135.007812 52.929688 " fill-opacity="1" fill-rule="nonzero"/></g><g clip-path="url(#dddcd784e0)"><g clip-path="url(#9896768b7c)"><path fill="#ffffff" d="M 114.902344 32.472656 L 135.015625 52.582031 L 126.289062 61.308594 L 106.179688 41.199219 Z M 114.902344 32.472656 " fill-opacity="1" fill-rule="nonzero"/></g></g><g clip-path="url(#ef15c9dd2c)"><g clip-path="url(#3b79033d26)"><path fill="#202020" d="M 87.269531 161.070312 L 105.5 161.070312 L 105.5 179.300781 L 87.269531 179.300781 Z M 87.269531 161.070312 " fill-opacity="1" fill-rule="nonzero"/></g></g><g clip-path="url(#457fe57ad0)"><g clip-path="url(#41d1b06bf2)"><path fill="#202020" d="M 136.246094 130.757812 L 154.476562 130.757812 L 154.476562 148.988281 L 136.246094 148.988281 Z M 136.246094 130.757812 " fill-opacity="1" fill-rule="nonzero"/></g></g><g clip-path="url(#7c8035061a)"><g clip-path="url(#9a0391b11d)"><path fill="#202020" d="M 87.269531 96.085938 L 105.5 96.085938 L 105.5 114.316406 L 87.269531 114.316406 Z M 87.269531 96.085938 " fill-opacity="1" fill-rule="nonzero"/></g></g><g clip-path="url(#cf6c1bd72c)"><g clip-path="url(#726612cb55)"><path fill="#ffffff" d="M 96.382812 22.847656 L 122.429688 22.847656 L 122.429688 48.894531 L 96.382812 48.894531 Z M 96.382812 22.847656 " fill-opacity="1" fill-rule="nonzero"/></g></g><g clip-path="url(#16849d2766)"><g clip-path="url(#8388339c67)"><path fill="#202020" d="M 100.292969 26.757812 L 118.523438 26.757812 L 118.523438 44.988281 L 100.292969 44.988281 Z M 100.292969 26.757812 " fill-opacity="1" fill-rule="nonzero"/></g></g></svg>