<svg xmlns="http://www.w3.org/2000/svg" xmlns:xlink="http://www.w3.org/1999/xlink" width="500" zoomAndPan="magnify" viewBox="0 0 375 374.999991" height="500" preserveAspectRatio="xMidYMid meet" version="1.0"><defs><filter x="0%" y="0%" width="100%" height="100%" id="bbc3f97ee3"><feColorMatrix values="0 0 0 0 1 0 0 0 0 1 0 0 0 0 1 0 0 0 1 0" color-interpolation-filters="sRGB"/></filter><clipPath id="af479ea170"><path d="M 95.527344 29.03125 L 139.097656 29.03125 L 139.097656 72.601562 L 95.527344 72.601562 Z M 95.527344 29.03125 " clip-rule="nonzero"/></clipPath><clipPath id="4216dfdacc"><path d="M 117.3125 29.03125 C 105.28125 29.03125 95.527344 38.785156 95.527344 50.816406 C 95.527344 62.847656 105.28125 72.601562 117.3125 72.601562 C 129.34375 72.601562 139.097656 62.847656 139.097656 50.816406 C 139.097656 38.785156 129.34375 29.03125 117.3125 29.03125 Z M 117.3125 29.03125 " clip-rule="nonzero"/></clipPath><clipPath id="da7a6ae1d0"><path d="M 117.3125 40.589844 L 260.011719 40.589844 L 260.011719 60.117188 L 117.3125 60.117188 Z M 117.3125 40.589844 " clip-rule="nonzero"/></clipPath><clipPath id="7853a61796"><path d="M 171 50 L 261 50 L 261 204 L 171 204 Z M 171 50 " clip-rule="nonzero"/></clipPath><clipPath id="c3c479b60e"><path d="M 171.210938 193.28125 L 240.550781 50.8125 L 260.933594 60.734375 L 191.59375 203.203125 Z M 171.210938 193.28125 " clip-rule="nonzero"/></clipPath><clipPath id="c983a6f469"><path d="M 117 45 L 221 45 L 221 228 L 117 228 Z M 117 45 " clip-rule="nonzero"/></clipPath><clipPath id="c3747a0732"><path d="M 117.3125 217.746094 L 201.035156 45.730469 L 220.375 55.144531 L 136.652344 227.15625 Z M 117.3125 217.746094 " clip-rule="nonzero"/></clipPath><clipPath id="63a9639098"><path d="M 43.265625 205.375 L 86.839844 205.375 L 86.839844 248.945312 L 43.265625 248.945312 Z M 43.265625 205.375 " clip-rule="nonzero"/></clipPath><clipPath id="90f4c772e5"><path d="M 65.050781 205.375 C 53.019531 205.375 43.265625 215.128906 43.265625 227.160156 C 43.265625 239.191406 53.019531 248.945312 65.050781 248.945312 C 77.085938 248.945312 86.839844 239.191406 86.839844 227.160156 C 86.839844 215.128906 77.085938 205.375 65.050781 205.375 Z M 65.050781 205.375 " clip-rule="nonzero"/></clipPath><clipPath id="531ca10369"><path d="M 65.050781 216.933594 L 272.609375 216.933594 L 272.609375 237.386719 L 65.050781 237.386719 Z M 65.050781 216.933594 " clip-rule="nonzero"/></clipPath><clipPath id="f418bda1cd"><path d="M 281 155 L 326 155 L 326 199 L 281 199 Z M 281 155 " clip-rule="nonzero"/></clipPath><clipPath id="4867a13936"><path d="M 331.730469 165.191406 L 314.882812 205.375 L 274.699219 188.523438 L 291.550781 148.34375 Z M 331.730469 165.191406 " clip-rule="nonzero"/></clipPath><clipPath id="f6eede7ccc"><path d="M 323.308594 185.285156 C 327.960938 174.1875 322.738281 161.421875 311.640625 156.765625 C 300.542969 152.113281 287.777344 157.339844 283.125 168.433594 C 278.472656 179.53125 283.695312 192.296875 294.792969 196.949219 C 305.886719 201.601562 318.65625 196.378906 323.308594 185.285156 Z M 323.308594 185.285156 " clip-rule="nonzero"/></clipPath><clipPath id="cf9c77b89c"><path d="M 246 170 L 314 170 L 314 278 L 246 278 Z M 246 170 " clip-rule="nonzero"/></clipPath><clipPath id="1f1b812253"><path d="M 313.164062 179.636719 L 265.363281 277.378906 L 246.992188 268.394531 L 294.792969 170.652344 Z M 313.164062 179.636719 " clip-rule="nonzero"/></clipPath><clipPath id="a45eb95b45"><path d="M 184.769531 257.808594 L 265.09375 257.808594 L 265.09375 277.378906 L 184.769531 277.378906 Z M 184.769531 257.808594 " clip-rule="nonzero"/></clipPath><clipPath id="afe75b67b7"><path d="M 103 295 L 148 295 L 148 340 L 103 340 Z M 103 295 " clip-rule="nonzero"/></clipPath><clipPath id="910adba693"><path d="M 96.730469 329.121094 L 113.582031 288.9375 L 153.765625 305.789062 L 136.914062 345.96875 Z M 96.730469 329.121094 " clip-rule="nonzero"/></clipPath><clipPath id="4939cf59f6"><path d="M 105.15625 309.027344 C 100.503906 320.125 105.726562 332.890625 116.824219 337.546875 C 127.917969 342.199219 140.6875 336.972656 145.339844 325.878906 C 149.992188 314.78125 144.769531 302.015625 133.671875 297.363281 C 122.578125 292.710938 109.808594 297.933594 105.15625 309.027344 Z M 105.15625 309.027344 " clip-rule="nonzero"/></clipPath><clipPath id="3d8e332e3a"><path d="M 115 216 L 182 216 L 182 324 L 115 324 Z M 115 216 " clip-rule="nonzero"/></clipPath><clipPath id="8095c41bf8"><path d="M 115.292969 314.671875 L 163.09375 216.929688 L 181.464844 225.914062 L 133.664062 323.65625 Z M 115.292969 314.671875 " clip-rule="nonzero"/></clipPath><clipPath id="2197a25a0b"><path d="M 263.039062 165.039062 L 294.75 165.039062 L 294.75 174.667969 L 263.039062 174.667969 Z M 263.039062 165.039062 " clip-rule="nonzero"/></clipPath><clipPath id="134e4e32d3"><path d="M 300.023438 165.039062 L 331.734375 165.039062 L 331.734375 174.667969 L 300.023438 174.667969 Z M 300.023438 165.039062 " clip-rule="nonzero"/></clipPath><mask id="d545fd676e"><g filter="url(#bbc3f97ee3)"><rect x="-37.5" width="450" fill="#000000" y="-37.499999" height="449.999989" fill-opacity="0.6"/></g></mask><clipPath id="b39d22901f"><path d="M 0.164062 0.730469 L 24.042969 0.730469 L 24.042969 12.863281 L 0.164062 12.863281 Z M 0.164062 0.730469 " clip-rule="nonzero"/></clipPath><clipPath id="5d05878cba"><path d="M 6.128906 0.730469 L 24.019531 0.730469 L 18.058594 12.863281 L 0.164062 12.863281 Z M 6.128906 0.730469 " clip-rule="nonzero"/></clipPath><clipPath id="33e1967aa3"><rect x="0" width="25" y="0" height="13"/></clipPath><mask id="501f071b69"><g filter="url(#bbc3f97ee3)"><rect x="-37.5" width="450" fill="#000000" y="-37.499999" height="449.999989" fill-opacity="0.6"/></g></mask><clipPath id="0058374dcb"><path d="M 0.949219 0.46875 L 24.835938 0.46875 L 24.835938 12.203125 L 0.949219 12.203125 Z M 0.949219 0.46875 " clip-rule="nonzero"/></clipPath><clipPath id="c1a36018b2"><path d="M 6.914062 0.46875 L 24.808594 0.46875 L 18.84375 12.203125 L 0.949219 12.203125 Z M 6.914062 0.46875 " clip-rule="nonzero"/></clipPath><clipPath id="3cdadebc5b"><rect x="0" width="25" y="0" height="13"/></clipPath><mask id="8082f2d6a2"><g filter="url(#bbc3f97ee3)"><rect x="-37.5" width="450" fill="#000000" y="-37.499999" height="449.999989" fill-opacity="0.6"/></g></mask><clipPath id="624c23e4d6"><path d="M 1.019531 0.453125 L 24.898438 0.453125 L 24.898438 12.582031 L 1.019531 12.582031 Z M 1.019531 0.453125 " clip-rule="nonzero"/></clipPath><clipPath id="7aa861ad18"><path d="M 6.984375 0.453125 L 24.878906 0.453125 L 18.914062 12.582031 L 1.019531 12.582031 Z M 6.984375 0.453125 " clip-rule="nonzero"/></clipPath><clipPath id="61bc1d92d3"><rect x="0" width="26" y="0" height="13"/></clipPath><mask id="12f1d3efbb"><g filter="url(#bbc3f97ee3)"><rect x="-37.5" width="450" fill="#000000" y="-37.499999" height="449.999989" fill-opacity="0.6"/></g></mask><clipPath id="62f96ea759"><path d="M 0.878906 0.671875 L 24.765625 0.671875 L 24.765625 12.410156 L 0.878906 12.410156 Z M 0.878906 0.671875 " clip-rule="nonzero"/></clipPath><clipPath id="6baa8d5732"><path d="M 6.84375 0.671875 L 24.738281 0.671875 L 18.773438 12.410156 L 0.878906 12.410156 Z M 6.84375 0.671875 " clip-rule="nonzero"/></clipPath><clipPath id="da1e9618ae"><rect x="0" width="25" y="0" height="13"/></clipPath><clipPath id="50854aa3ae"><path d="M 153.039062 105.972656 L 238.714844 105.972656 L 238.714844 126.511719 L 153.039062 126.511719 Z M 153.039062 105.972656 " clip-rule="nonzero"/></clipPath><clipPath id="4a2a506518"><path d="M 144.488281 104.972656 L 179.964844 104.972656 L 179.964844 127.511719 L 144.488281 127.511719 Z M 144.488281 104.972656 " clip-rule="nonzero"/></clipPath><clipPath id="38f75ad035"><path d="M 155.515625 104.972656 L 179.90625 104.972656 L 168.878906 127.511719 L 144.488281 127.511719 Z M 155.515625 104.972656 " clip-rule="nonzero"/></clipPath><clipPath id="641722a768"><path d="M 189.589844 104.972656 L 225 104.972656 L 225 127.511719 L 189.589844 127.511719 Z M 189.589844 104.972656 " clip-rule="nonzero"/></clipPath><clipPath id="eb11594cf1"><path d="M 200.617188 104.972656 L 225.011719 104.972656 L 213.984375 127.511719 L 189.589844 127.511719 Z M 200.617188 104.972656 " clip-rule="nonzero"/></clipPath><clipPath id="fcb89922b1"><path d="M 166.789062 180.199219 L 202.796875 180.199219 L 202.796875 202.734375 L 166.789062 202.734375 Z M 166.789062 180.199219 " clip-rule="nonzero"/></clipPath><clipPath id="3111820718"><path d="M 177.816406 180.199219 L 202.75 180.199219 L 191.722656 202.734375 L 166.789062 202.734375 Z M 177.816406 180.199219 " clip-rule="nonzero"/></clipPath><clipPath id="bc57db7fd1"><path d="M 236.050781 40.589844 L 270.738281 40.589844 L 270.738281 63.128906 L 236.050781 63.128906 Z M 236.050781 40.589844 " clip-rule="nonzero"/></clipPath><clipPath id="23edda7f8b"><path d="M 247.082031 40.589844 L 270.722656 40.589844 L 259.695312 63.128906 L 236.050781 63.128906 Z M 247.082031 40.589844 " clip-rule="nonzero"/></clipPath><clipPath id="36f07d0ebb"><path d="M 171.210938 257.808594 L 206.679688 257.808594 L 206.679688 277.378906 L 171.210938 277.378906 Z M 171.210938 257.808594 " clip-rule="nonzero"/></clipPath><clipPath id="8951020e1b"><path d="M 182.238281 257.808594 L 206.632812 257.808594 L 195.605469 277.378906 L 171.210938 277.378906 Z M 182.238281 257.808594 " clip-rule="nonzero"/></clipPath><clipPath id="c7cef2ea48"><path d="M 86.839844 257.808594 L 122.304688 257.808594 L 122.304688 277.378906 L 86.839844 277.378906 Z M 86.839844 257.808594 " clip-rule="nonzero"/></clipPath><clipPath id="0588a6a00f"><path d="M 97.867188 257.808594 L 122.261719 257.808594 L 111.230469 277.378906 L 86.839844 277.378906 Z M 97.867188 257.808594 " clip-rule="nonzero"/></clipPath><mask id="9962eb3336"><g filter="url(#bbc3f97ee3)"><rect x="-37.5" width="450" fill="#000000" y="-37.499999" height="449.999989" fill-opacity="0.6"/></g></mask><clipPath id="5674f80612"><path d="M 0.75 0.460938 L 24.636719 0.460938 L 24.636719 12.199219 L 0.75 12.199219 Z M 0.75 0.460938 " clip-rule="nonzero"/></clipPath><clipPath id="8e8cba25d7"><path d="M 6.714844 0.460938 L 24.609375 0.460938 L 18.644531 12.199219 L 0.75 12.199219 Z M 6.714844 0.460938 " clip-rule="nonzero"/></clipPath><clipPath id="4588d807d3"><rect x="0" width="25" y="0" height="13"/></clipPath><mask id="cf16231a1a"><g filter="url(#bbc3f97ee3)"><rect x="-37.5" width="450" fill="#000000" y="-37.499999" height="449.999989" fill-opacity="0.6"/></g></mask><clipPath id="879d41a48e"><path d="M 0.820312 0.332031 L 24.703125 0.332031 L 24.703125 12.460938 L 0.820312 12.460938 Z M 0.820312 0.332031 " clip-rule="nonzero"/></clipPath><clipPath id="80a6a75958"><path d="M 6.785156 0.332031 L 24.679688 0.332031 L 18.714844 12.460938 L 0.820312 12.460938 Z M 6.785156 0.332031 " clip-rule="nonzero"/></clipPath><clipPath id="3bf96b031f"><rect x="0" width="25" y="0" height="13"/></clipPath><clipPath id="d07d633b36"><path d="M 115.292969 32.5625 L 142.476562 32.5625 L 142.476562 37.785156 L 115.292969 37.785156 Z M 115.292969 32.5625 " clip-rule="nonzero"/></clipPath><clipPath id="1bf1a371b2"><path d="M 91.941406 32.5625 L 114.023438 32.5625 L 114.023438 37.785156 L 91.941406 37.785156 Z M 91.941406 32.5625 " clip-rule="nonzero"/></clipPath><mask id="e95bef5787"><g filter="url(#bbc3f97ee3)"><rect x="-37.5" width="450" fill="#000000" y="-37.499999" height="449.999989" fill-opacity="0.6"/></g></mask><clipPath id="71b64cb422"><path d="M 0.195312 0.675781 L 24.082031 0.675781 L 24.082031 12.414062 L 0.195312 12.414062 Z M 0.195312 0.675781 " clip-rule="nonzero"/></clipPath><clipPath id="4b51ac16b6"><path d="M 6.160156 0.675781 L 24.054688 0.675781 L 18.089844 12.414062 L 0.195312 12.414062 Z M 6.160156 0.675781 " clip-rule="nonzero"/></clipPath><clipPath id="4c475d147b"><rect x="0" width="25" y="0" height="13"/></clipPath><mask id="327a6d6293"><g filter="url(#bbc3f97ee3)"><rect x="-37.5" width="450" fill="#000000" y="-37.499999" height="449.999989" fill-opacity="0.6"/></g></mask><clipPath id="e03f915018"><path d="M 0.820312 0.535156 L 24.703125 0.535156 L 24.703125 12.667969 L 0.820312 12.667969 Z M 0.820312 0.535156 " clip-rule="nonzero"/></clipPath><clipPath id="61ad77b1f3"><path d="M 6.785156 0.535156 L 24.679688 0.535156 L 18.714844 12.667969 L 0.820312 12.667969 Z M 6.785156 0.535156 " clip-rule="nonzero"/></clipPath><clipPath id="b8ac6cf156"><rect x="0" width="25" y="0" height="13"/></clipPath><clipPath id="5850c031d2"><path d="M 75.796875 261.410156 L 102.984375 261.410156 L 102.984375 266.632812 L 75.796875 266.632812 Z M 75.796875 261.410156 " clip-rule="nonzero"/></clipPath><clipPath id="d4d4a5f2fc"><path d="M 102.984375 261.410156 L 128.359375 261.410156 L 128.359375 266.632812 L 102.984375 266.632812 Z M 102.984375 261.410156 " clip-rule="nonzero"/></clipPath><mask id="2d2c7f4c6a"><g filter="url(#bbc3f97ee3)"><rect x="-37.5" width="450" fill="#000000" y="-37.499999" height="449.999989" fill-opacity="0.6"/></g></mask><clipPath id="b2df349f8a"><path d="M 0.390625 0.519531 L 9.085938 0.519531 L 9.085938 4.933594 L 0.390625 4.933594 Z M 0.390625 0.519531 " clip-rule="nonzero"/></clipPath><clipPath id="b979074ce4"><path d="M 2.5625 0.519531 L 9.078125 0.519531 L 6.90625 4.933594 L 0.390625 4.933594 Z M 2.5625 0.519531 " clip-rule="nonzero"/></clipPath><clipPath id="df306b5117"><rect x="0" width="10" y="0" height="6"/></clipPath><mask id="2949685b5f"><g filter="url(#bbc3f97ee3)"><rect x="-37.5" width="450" fill="#000000" y="-37.499999" height="449.999989" fill-opacity="0.6"/></g></mask><clipPath id="3ea3f2f7c9"><path d="M 0.449219 0.738281 L 9.988281 0.738281 L 9.988281 5.582031 L 0.449219 5.582031 Z M 0.449219 0.738281 " clip-rule="nonzero"/></clipPath><clipPath id="84f6af66ab"><path d="M 2.832031 0.738281 L 9.980469 0.738281 L 7.597656 5.582031 L 0.449219 5.582031 Z M 2.832031 0.738281 " clip-rule="nonzero"/></clipPath><clipPath id="ea7163414e"><rect x="0" width="11" y="0" height="6"/></clipPath></defs><rect x="-37.5" width="450" fill="#ffffff" y="-37.499999" height="449.999989" fill-opacity="1"/><rect x="-37.5" width="450" fill="#292929" y="-37.499999" height="449.999989" fill-opacity="1"/><g clip-path="url(#af479ea170)"><g clip-path="url(#4216dfdacc)"><path fill="#f9fafb" d="M 95.527344 29.03125 L 139.097656 29.03125 L 139.097656 72.601562 L 95.527344 72.601562 Z M 95.527344 29.03125 " fill-opacity="1" fill-rule="nonzero"/></g></g><g clip-path="url(#da7a6ae1d0)"><path fill="#f9fafb" d="M 117.3125 40.589844 L 260.035156 40.589844 L 260.035156 60.117188 L 117.3125 60.117188 Z M 117.3125 40.589844 " fill-opacity="1" fill-rule="nonzero"/></g><g clip-path="url(#7853a61796)"><g clip-path="url(#c3c479b60e)"><path fill="#f9fafb" d="M 171.210938 193.28125 L 240.535156 50.84375 L 260.917969 60.765625 L 191.59375 203.203125 Z M 171.210938 193.28125 " fill-opacity="1" fill-rule="nonzero"/></g></g><g clip-path="url(#c983a6f469)"><g clip-path="url(#c3747a0732)"><path fill="#f9fafb" d="M 117.3125 217.746094 L 201.042969 45.714844 L 220.382812 55.128906 L 136.652344 227.15625 Z M 117.3125 217.746094 " fill-opacity="1" fill-rule="nonzero"/></g></g><g clip-path="url(#63a9639098)"><g clip-path="url(#90f4c772e5)"><path fill="#f9fafb" d="M 43.265625 205.375 L 86.839844 205.375 L 86.839844 248.945312 L 43.265625 248.945312 Z M 43.265625 205.375 " fill-opacity="1" fill-rule="nonzero"/></g></g><g clip-path="url(#531ca10369)"><path fill="#f9fafb" d="M 65.050781 216.933594 L 272.597656 216.933594 L 272.597656 237.386719 L 65.050781 237.386719 Z M 65.050781 216.933594 " fill-opacity="1" fill-rule="nonzero"/></g><g clip-path="url(#f418bda1cd)"><g clip-path="url(#4867a13936)"><g clip-path="url(#f6eede7ccc)"><path fill="#f9fafb" d="M 331.730469 165.191406 L 314.882812 205.375 L 274.699219 188.523438 L 291.550781 148.34375 Z M 331.730469 165.191406 " fill-opacity="1" fill-rule="nonzero"/></g></g></g><g clip-path="url(#cf9c77b89c)"><g clip-path="url(#1f1b812253)"><path fill="#f9fafb" d="M 313.164062 179.636719 L 265.363281 277.378906 L 246.992188 268.394531 L 294.792969 170.652344 Z M 313.164062 179.636719 " fill-opacity="1" fill-rule="nonzero"/></g></g><g clip-path="url(#a45eb95b45)"><path fill="#f9fafb" d="M 184.769531 257.808594 L 265.105469 257.808594 L 265.105469 277.378906 L 184.769531 277.378906 Z M 184.769531 257.808594 " fill-opacity="1" fill-rule="nonzero"/></g><g clip-path="url(#afe75b67b7)"><g clip-path="url(#910adba693)"><g clip-path="url(#4939cf59f6)"><path fill="#f9fafb" d="M 96.730469 329.121094 L 113.582031 288.9375 L 153.765625 305.789062 L 136.914062 345.96875 Z M 96.730469 329.121094 " fill-opacity="1" fill-rule="nonzero"/></g></g></g><g clip-path="url(#3d8e332e3a)"><g clip-path="url(#8095c41bf8)"><path fill="#f9fafb" d="M 115.292969 314.671875 L 163.09375 216.929688 L 181.464844 225.914062 L 133.664062 323.65625 Z M 115.292969 314.671875 " fill-opacity="1" fill-rule="nonzero"/></g></g><g clip-path="url(#2197a25a0b)"><path fill="#292929" d="M 263.039062 165.039062 L 294.742188 165.039062 L 294.742188 174.667969 L 263.039062 174.667969 Z M 263.039062 165.039062 " fill-opacity="1" fill-rule="nonzero"/></g><g clip-path="url(#134e4e32d3)"><path fill="#f9fafb" d="M 300.023438 165.039062 L 331.722656 165.039062 L 331.722656 174.667969 L 300.023438 174.667969 Z M 300.023438 165.039062 " fill-opacity="1" fill-rule="nonzero"/></g><g mask="url(#d545fd676e)"><g transform="matrix(1, 0, 0, 1, 276, 206)"><g clip-path="url(#33e1967aa3)"><g clip-path="url(#b39d22901f)"><g clip-path="url(#5d05878cba)"><path fill="#289dd2" d="M 0.164062 0.730469 L 24.042969 0.730469 L 24.042969 12.863281 L 0.164062 12.863281 Z M 0.164062 0.730469 " fill-opacity="1" fill-rule="nonzero"/></g></g></g></g></g><g mask="url(#501f071b69)"><g transform="matrix(1, 0, 0, 1, 260, 191)"><g clip-path="url(#3cdadebc5b)"><g clip-path="url(#0058374dcb)"><g clip-path="url(#c1a36018b2)"><path fill="#ff5757" d="M 0.949219 0.46875 L 24.789062 0.46875 L 24.789062 12.203125 L 0.949219 12.203125 Z M 0.949219 0.46875 " fill-opacity="1" fill-rule="nonzero"/></g></g></g></g></g><g mask="url(#8082f2d6a2)"><g transform="matrix(1, 0, 0, 1, 248, 262)"><g clip-path="url(#61bc1d92d3)"><g clip-path="url(#624c23e4d6)"><g clip-path="url(#7aa861ad18)"><path fill="#289dd2" d="M 1.019531 0.453125 L 24.898438 0.453125 L 24.898438 12.582031 L 1.019531 12.582031 Z M 1.019531 0.453125 " fill-opacity="1" fill-rule="nonzero"/></g></g></g></g></g><g mask="url(#12f1d3efbb)"><g transform="matrix(1, 0, 0, 1, 272, 249)"><g clip-path="url(#da1e9618ae)"><g clip-path="url(#62f96ea759)"><g clip-path="url(#6baa8d5732)"><path fill="#ff5757" d="M 0.878906 0.671875 L 24.71875 0.671875 L 24.71875 12.410156 L 0.878906 12.410156 Z M 0.878906 0.671875 " fill-opacity="1" fill-rule="nonzero"/></g></g></g></g></g><g clip-path="url(#50854aa3ae)"><path fill="#292929" d="M 153.039062 105.972656 L 238.734375 105.972656 L 238.734375 126.511719 L 153.039062 126.511719 Z M 153.039062 105.972656 " fill-opacity="1" fill-rule="nonzero"/></g><g clip-path="url(#4a2a506518)"><g clip-path="url(#38f75ad035)"><path fill="#f9fafb" d="M 144.488281 104.972656 L 179.878906 104.972656 L 179.878906 127.511719 L 144.488281 127.511719 Z M 144.488281 104.972656 " fill-opacity="1" fill-rule="nonzero"/></g></g><g clip-path="url(#641722a768)"><g clip-path="url(#eb11594cf1)"><path fill="#f9fafb" d="M 189.589844 104.972656 L 224.980469 104.972656 L 224.980469 127.511719 L 189.589844 127.511719 Z M 189.589844 104.972656 " fill-opacity="1" fill-rule="nonzero"/></g></g><g clip-path="url(#fcb89922b1)"><g clip-path="url(#3111820718)"><path fill="#f9fafb" d="M 166.789062 180.199219 L 202.707031 180.199219 L 202.707031 202.734375 L 166.789062 202.734375 Z M 166.789062 180.199219 " fill-opacity="1" fill-rule="nonzero"/></g></g><g clip-path="url(#bc57db7fd1)"><g clip-path="url(#23edda7f8b)"><path fill="#f9fafb" d="M 236.050781 40.589844 L 270.738281 40.589844 L 270.738281 63.128906 L 236.050781 63.128906 Z M 236.050781 40.589844 " fill-opacity="1" fill-rule="nonzero"/></g></g><g clip-path="url(#36f07d0ebb)"><g clip-path="url(#8951020e1b)"><path fill="#f9fafb" d="M 171.210938 257.808594 L 206.601562 257.808594 L 206.601562 277.378906 L 171.210938 277.378906 Z M 171.210938 257.808594 " fill-opacity="1" fill-rule="nonzero"/></g></g><g clip-path="url(#c7cef2ea48)"><g clip-path="url(#0588a6a00f)"><path fill="#f9fafb" d="M 86.839844 257.808594 L 122.230469 257.808594 L 122.230469 277.378906 L 86.839844 277.378906 Z M 86.839844 257.808594 " fill-opacity="1" fill-rule="nonzero"/></g></g><g mask="url(#9962eb3336)"><g transform="matrix(1, 0, 0, 1, 202, 168)"><g clip-path="url(#4588d807d3)"><g clip-path="url(#5674f80612)"><g clip-path="url(#8e8cba25d7)"><path fill="#ff5757" d="M 0.75 0.460938 L 24.589844 0.460938 L 24.589844 12.199219 L 0.75 12.199219 Z M 0.75 0.460938 " fill-opacity="1" fill-rule="nonzero"/></g></g></g></g></g><g mask="url(#cf16231a1a)"><g transform="matrix(1, 0, 0, 1, 190, 156)"><g clip-path="url(#3bf96b031f)"><g clip-path="url(#879d41a48e)"><g clip-path="url(#80a6a75958)"><path fill="#289dd2" d="M 0.820312 0.332031 L 24.703125 0.332031 L 24.703125 12.460938 L 0.820312 12.460938 Z M 0.820312 0.332031 " fill-opacity="1" fill-rule="nonzero"/></g></g></g></g></g><g clip-path="url(#d07d633b36)"><path fill="#292929" d="M 115.292969 32.5625 L 142.484375 32.5625 L 142.484375 37.785156 L 115.292969 37.785156 Z M 115.292969 32.5625 " fill-opacity="1" fill-rule="nonzero"/></g><g clip-path="url(#1bf1a371b2)"><path fill="#f9fafb" d="M 91.941406 32.5625 L 114.03125 32.5625 L 114.03125 37.785156 L 91.941406 37.785156 Z M 91.941406 32.5625 " fill-opacity="1" fill-rule="nonzero"/></g><g mask="url(#e95bef5787)"><g transform="matrix(1, 0, 0, 1, 162, 76)"><g clip-path="url(#4c475d147b)"><g clip-path="url(#71b64cb422)"><g clip-path="url(#4b51ac16b6)"><path fill="#ff5757" d="M 0.195312 0.675781 L 24.035156 0.675781 L 24.035156 12.414062 L 0.195312 12.414062 Z M 0.195312 0.675781 " fill-opacity="1" fill-rule="nonzero"/></g></g></g></g></g><g mask="url(#327a6d6293)"><g transform="matrix(1, 0, 0, 1, 190, 66)"><g clip-path="url(#b8ac6cf156)"><g clip-path="url(#e03f915018)"><g clip-path="url(#61ad77b1f3)"><path fill="#289dd2" d="M 0.820312 0.535156 L 24.703125 0.535156 L 24.703125 12.667969 L 0.820312 12.667969 Z M 0.820312 0.535156 " fill-opacity="1" fill-rule="nonzero"/></g></g></g></g></g><g clip-path="url(#5850c031d2)"><path fill="#292929" d="M 75.796875 261.410156 L 102.988281 261.410156 L 102.988281 266.632812 L 75.796875 266.632812 Z M 75.796875 261.410156 " fill-opacity="1" fill-rule="nonzero"/></g><g clip-path="url(#d4d4a5f2fc)"><path fill="#f9fafb" d="M 102.984375 261.410156 L 128.355469 261.410156 L 128.355469 266.632812 L 102.984375 266.632812 Z M 102.984375 261.410156 " fill-opacity="1" fill-rule="nonzero"/></g><g mask="url(#2d2c7f4c6a)"><g transform="matrix(1, 0, 0, 1, 89, 268)"><g clip-path="url(#df306b5117)"><g clip-path="url(#b2df349f8a)"><g clip-path="url(#b979074ce4)"><path fill="#289dd2" d="M 0.390625 0.519531 L 9.085938 0.519531 L 9.085938 4.933594 L 0.390625 4.933594 Z M 0.390625 0.519531 " fill-opacity="1" fill-rule="nonzero"/></g></g></g></g></g><g mask="url(#2949685b5f)"><g transform="matrix(1, 0, 0, 1, 81, 269)"><g clip-path="url(#ea7163414e)"><g clip-path="url(#3ea3f2f7c9)"><g clip-path="url(#84f6af66ab)"><path fill="#ff5757" d="M 0.449219 0.738281 L 9.988281 0.738281 L 9.988281 5.582031 L 0.449219 5.582031 Z M 0.449219 0.738281 " fill-opacity="1" fill-rule="nonzero"/></g></g></g></g></g></svg>